<svg width="26" height="25" viewBox="0 0 26 25" fill="none" xmlns="http://www.w3.org/2000/svg">
<rect x="0.984375" y="0.5" width="24" height="24" rx="9.5" stroke="#6091FF"/>
<g clip-path="url(#clip0)">
<path d="M13.3432 7.14453C13.5326 7.14453 13.7143 7.21979 13.8483 7.35374C13.9822 7.4877 14.0575 7.66938 14.0575 7.85882V12.1445H18.3432C18.5326 12.1445 18.7143 12.2198 18.8483 12.3537C18.9822 12.4877 19.0575 12.6694 19.0575 12.8588C19.0575 13.0483 18.9822 13.2299 18.8483 13.3639C18.7143 13.4978 18.5326 13.5731 18.3432 13.5731H14.0575V17.8588C14.0575 18.0483 13.9822 18.2299 13.8483 18.3639C13.7143 18.4978 13.5326 18.5731 13.3432 18.5731C13.1538 18.5731 12.9721 18.4978 12.8381 18.3639C12.7042 18.2299 12.6289 18.0483 12.6289 17.8588V13.5731H8.34319C8.15375 13.5731 7.97207 13.4978 7.83812 13.3639C7.70416 13.2299 7.62891 13.0483 7.62891 12.8588C7.62891 12.6694 7.70416 12.4877 7.83812 12.3537C7.97207 12.2198 8.15375 12.1445 8.34319 12.1445H12.6289V7.85882C12.6289 7.66938 12.7042 7.4877 12.8381 7.35374C12.9721 7.21979 13.1538 7.14453 13.3432 7.14453V7.14453Z" fill="#6091FF"/>
</g>
<defs>
<clipPath id="clip0">
<rect width="11.4286" height="11.4286" fill="white" transform="translate(7.62891 7.14453)"/>
</clipPath>
</defs>
</svg>
