<svg width="11" height="18" viewBox="0 0 11 18" fill="none" xmlns="http://www.w3.org/2000/svg">
<path d="M1.45749 17.9977C1.11754 17.9983 0.788094 17.8939 0.526335 17.7026C0.379011 17.5949 0.257231 17.4627 0.167968 17.3134C0.0787053 17.1641 0.0237143 17.0008 0.00614478 16.8328C-0.0114248 16.6648 0.00877262 16.4953 0.0655796 16.3342C0.122387 16.1731 0.214686 16.0234 0.337194 15.8938L6.85528 9.01759L0.569984 2.12859C0.449129 1.99736 0.358877 1.84637 0.304416 1.6843C0.249956 1.52222 0.23236 1.35225 0.252641 1.18416C0.272921 1.01607 0.330677 0.853166 0.422591 0.704819C0.514504 0.556472 0.638762 0.425605 0.788222 0.319739C0.938758 0.202951 1.11505 0.11486 1.30602 0.0609931C1.497 0.00712667 1.69854 -0.0113514 1.89801 0.00671768C2.09747 0.0247868 2.29054 0.0790133 2.4651 0.165994C2.63967 0.252975 2.79196 0.370832 2.91242 0.512169L9.93973 8.20939C10.1537 8.43893 10.2707 8.72686 10.2707 9.02401C10.2707 9.32115 10.1537 9.60908 9.93973 9.83863L2.66508 17.5358C2.51913 17.6911 2.33372 17.8138 2.1239 17.8941C1.91409 17.9743 1.68578 18.0098 1.45749 17.9977Z" fill="white"/>
</svg>
