<svg width="20" height="20" viewBox="0 0 20 20" fill="none" xmlns="http://www.w3.org/2000/svg">
<path d="M16.6 17.5008H19V19.5008H13V13.5008H15V16.2308C16.83 14.7608 18 12.5208 18 10.0008C18 5.93078 14.94 2.56078 11 2.07078V0.0507812C16.05 0.550781 20 4.81078 20 10.0008C20 12.9908 18.68 15.6708 16.6 17.5008ZM2 10.0008C2 7.48078 3.17 5.23078 5 3.77078V6.50078H7V0.500781H1V2.50078H3.4C2.3316 3.43647 1.47553 4.5897 0.889148 5.88319C0.302763 7.17669 -0.000391059 8.58058 3.78591e-07 10.0008C3.78591e-07 15.1908 3.95 19.4508 9 19.9508V17.9308C5.06 17.4408 2 14.0708 2 10.0008Z" fill="#407BFF"/>
</svg>
