<svg width="26" height="25" viewBox="0 0 26 25" fill="none" xmlns="http://www.w3.org/2000/svg">
<rect x="0.984375" y="0.5" width="24" height="24" rx="9.5" stroke="#E0E0E0"/>
<path d="M13.9219 18.125H12.0469C11.7982 18.125 11.5598 18.0262 11.384 17.8504C11.2081 17.6746 11.1094 17.4361 11.1094 17.1875V13.6297L7.63594 10.1562C7.45988 9.98124 7.36042 9.74355 7.35938 9.49531V7.8125C7.35938 7.56386 7.45815 7.3254 7.63396 7.14959C7.80978 6.97377 8.04823 6.875 8.29688 6.875H17.6719C17.9205 6.875 18.159 6.97377 18.3348 7.14959C18.5106 7.3254 18.6094 7.56386 18.6094 7.8125V9.49531C18.6083 9.74355 18.5089 9.98124 18.3328 10.1562L14.8594 13.6297V17.1875C14.8594 17.4361 14.7606 17.6746 14.5848 17.8504C14.409 18.0262 14.1705 18.125 13.9219 18.125ZM8.29688 7.8125V9.49531L12.0469 13.2453V17.1875H13.9219V13.2453L17.6719 9.49531V7.8125H8.29688Z" fill="#E0E0E0"/>
</svg>
