<svg width="450" height="401" viewBox="0 0 450 401" fill="none" xmlns="http://www.w3.org/2000/svg">
    <path d="M65.8996 362.51C153.766 413.829 296.234 413.829 384.1 362.51C471.967 311.192 471.967 227.985 384.1 176.655C296.234 125.325 153.806 125.337 65.8996 176.655C-22.0067 227.974 -21.9263 311.192 65.8996 362.51Z" fill="#9CB6FF"/>
    <path d="M41.4058 278.35L12.8438 259.918V191.426L41.4058 209.869V278.35Z" fill="#E0E0E0"/>
    <path d="M41.4062 209.868L82.2149 183.529V252.01L41.4062 278.349V209.868Z" fill="#EBEBEB"/>
    <path d="M82.2144 183.531L41.4058 209.87L12.8438 191.427L53.6524 165.088L82.2144 183.531Z" fill="#F5F5F5"/>
    <path d="M45.4944 212.497L78.1353 191.426L78.8888 191.909V217.282L46.2379 238.353L45.4844 237.87L45.4944 212.497Z" fill="#E0E0E0"/>
    <path d="M46.2383 212.991L78.8892 191.908V217.281L46.2383 238.352V212.991Z" fill="#F5F5F5"/>
    <path d="M59.0365 209.027L64.5922 205.444C65.3055 204.973 65.8882 205.186 65.8882 205.916C65.8364 206.363 65.6924 206.791 65.4675 207.165C65.2426 207.539 64.9429 207.85 64.5922 208.073L59.0365 211.656C58.3132 212.127 57.7305 211.914 57.7305 211.184C57.7826 210.735 57.9278 210.307 58.1546 209.932C58.3814 209.558 58.6834 209.248 59.0365 209.027Z" fill="#E0E0E0"/>
    <path d="M44.7402 244.598L77.3811 223.527V248.9L78.1346 249.383L45.4837 270.454L44.7402 269.971V244.598Z" fill="#E0E0E0"/>
    <path d="M45.4844 245.081L78.1353 224.01V249.383L45.4844 270.454V245.081Z" fill="#F5F5F5"/>
    <path d="M58.2831 241.127L63.8891 237.556C64.6124 237.084 65.1951 237.297 65.1951 238.027C65.143 238.476 64.9978 238.904 64.771 239.279C64.5442 239.653 64.2422 239.963 63.8891 240.184L58.3334 243.767C57.61 244.239 57.0273 244.025 57.0273 243.295C57.0725 242.85 57.2094 242.422 57.4273 242.046C57.6452 241.67 57.9382 241.356 58.2831 241.127Z" fill="#E0E0E0"/>
    <path d="M41.4058 205.916L12.8438 187.473V118.992L41.4058 137.424V205.916Z" fill="#E0E0E0"/>
    <path d="M41.4062 137.423L82.2149 111.084V179.576L41.4062 205.915V137.423Z" fill="#EBEBEB"/>
    <path d="M82.2144 111.084L41.4058 137.423L12.8438 118.991L53.6524 92.6523L82.2144 111.084Z" fill="#F5F5F5"/>
    <path d="M45.4844 140.063L78.1353 118.992L78.8888 119.475V144.848L46.2379 165.919L45.4844 165.425V140.063Z" fill="#E0E0E0"/>
    <path d="M59.0365 136.58L64.5821 132.997C65.3055 132.536 65.8882 132.749 65.8882 133.48C65.8346 133.927 65.6887 134.355 65.4621 134.73C65.2355 135.104 64.9342 135.414 64.5821 135.636L59.0365 139.219C58.3132 139.68 57.7305 139.477 57.7305 138.747C57.7833 138.298 57.9288 137.868 58.1554 137.492C58.3821 137.116 58.6837 136.803 59.0365 136.58Z" fill="#E0E0E0"/>
    <path d="M44.7402 172.163L77.3811 151.092V176.454L78.1346 176.936L45.4837 198.008L44.7402 197.525V172.163Z" fill="#E0E0E0"/>
    <path d="M45.4844 172.645L78.1353 151.574V176.936L45.4844 198.007V172.645Z" fill="#F5F5F5"/>
    <path d="M58.2845 168.681L63.8905 165.098C64.6038 164.638 65.1965 164.851 65.1965 165.581C65.14 166.028 64.9929 166.455 64.7666 166.828C64.5402 167.202 64.2406 167.513 63.8905 167.738L58.2845 171.287C57.5612 171.747 56.9785 171.534 56.9785 170.815C57.0358 170.372 57.1833 169.948 57.4097 169.578C57.6361 169.209 57.9354 168.902 58.2845 168.681Z" fill="#E0E0E0"/>
    <path d="M45.4844 140.063L78.1353 118.992V144.354L45.4844 165.425V140.063Z" fill="#E0E0E0"/>
    <path d="M94.4605 131.525L76.5879 119.99V142.342L94.4605 153.866V131.525Z" fill="#E0E0E0"/>
    <path d="M57.7305 169.04V137.422L64.7328 132.885L65.8882 134.794L86.2925 121.619V150.598L57.7305 169.04Z" fill="#EBEBEB"/>
    <path d="M57.7305 169.041L59.7699 141.377L88.3319 122.945L86.2925 150.598L57.7305 169.041Z" fill="#F5F5F5"/>
    <path d="M61.8103 152.598L46.2383 142.545V164.896L61.8103 174.938V152.598Z" fill="#EBEBEB"/>
    <path d="M61.8105 150.598L94.4615 129.527V154.889L61.8105 175.96V150.598Z" fill="#F5F5F5"/>
    <path d="M74.6088 146.632L80.1544 143.049C80.8777 142.589 81.4604 142.802 81.4604 143.532C81.4061 143.98 81.2599 144.408 81.0334 144.782C80.8068 145.156 80.506 145.466 80.1544 145.689L74.6088 149.272C73.8854 149.732 73.3027 149.519 73.3027 148.8C73.3556 148.35 73.5011 147.921 73.7277 147.544C73.9543 147.168 74.2559 146.856 74.6088 146.632Z" fill="#E0E0E0"/>
    <path d="M61.8096 150.599L60.7246 149.902V175.264L61.8096 175.96V150.599Z" fill="#E0E0E0"/>
    <path d="M60.7246 149.901L93.3655 128.818L94.4605 129.526L61.8096 150.597L60.7246 149.901Z" fill="#EBEBEB"/>
    <path d="M378.846 236.86L350.273 218.417V149.936L378.846 168.367V236.86Z" fill="#E0E0E0"/>
    <path d="M378.846 168.366L419.654 142.027V210.52L378.846 236.859V168.366Z" fill="#EBEBEB"/>
    <path d="M419.654 142.029L378.846 168.368L350.273 149.936L391.092 123.586L419.654 142.029Z" fill="#F5F5F5"/>
    <path d="M382.924 171.007L415.575 149.936L416.328 150.419L416.318 175.78L383.677 196.851L382.924 196.368V171.007Z" fill="#E0E0E0"/>
    <path d="M383.678 171.489L416.329 150.418L416.319 175.78L383.678 196.851V171.489Z" fill="#F5F5F5"/>
    <path d="M396.478 167.525L402.024 163.942C402.747 163.482 403.33 163.695 403.33 164.414C403.277 164.864 403.131 165.294 402.905 165.67C402.678 166.046 402.376 166.358 402.024 166.582L396.478 170.165C395.755 170.625 395.172 170.412 395.172 169.693C395.225 169.244 395.37 168.814 395.597 168.438C395.823 168.061 396.125 167.749 396.478 167.525Z" fill="#E0E0E0"/>
    <path d="M382.172 203.108L414.823 182.025V207.398L415.576 207.881L382.925 228.952L382.172 228.469V203.108Z" fill="#E0E0E0"/>
    <path d="M382.924 203.591L415.575 182.52V207.881L382.924 228.952V203.591Z" fill="#F5F5F5"/>
    <path d="M395.724 199.625L401.28 196.042C401.993 195.582 402.576 195.795 402.576 196.514C402.522 196.962 402.378 197.39 402.153 197.766C401.929 198.142 401.63 198.455 401.28 198.682L395.724 202.265C395.001 202.725 394.418 202.512 394.418 201.782C394.472 201.334 394.618 200.906 394.845 200.532C395.072 200.158 395.372 199.848 395.724 199.625Z" fill="#E0E0E0"/>
    <path d="M107.089 308.442C107.089 308.442 107.199 290.628 97.1526 277.273C88.2615 265.446 83.5296 257.943 86.3326 254.484C89.1355 251.024 95.1634 250.193 103.291 259.763C111.419 269.332 112.051 295.84 110.926 301.838L107.089 308.442Z" fill="#4E9CFF"/>
    <path opacity="0.2" d="M107.089 308.442C107.089 308.442 107.199 290.628 97.1526 277.273C88.2615 265.446 83.5296 257.943 86.3326 254.484C89.1355 251.024 95.1634 250.193 103.291 259.763C111.419 269.332 112.051 295.84 110.926 301.838L107.089 308.442Z" fill="black"/>
    <path d="M108.777 289.291C108.662 289.291 108.551 289.248 108.462 289.169C108.372 289.089 108.31 288.978 108.284 288.853C104.768 270.466 95.7465 260.301 90.6731 255.876C90.5681 255.785 90.4996 255.651 90.4826 255.504C90.4657 255.356 90.5016 255.207 90.5827 255.09C90.6659 254.971 90.7873 254.895 90.9208 254.876C91.0542 254.857 91.189 254.897 91.296 254.988C96.4699 259.481 105.682 269.882 109.269 288.617C109.284 288.688 109.286 288.763 109.274 288.835C109.263 288.907 109.239 288.976 109.203 289.038C109.168 289.1 109.121 289.153 109.067 289.195C109.013 289.236 108.952 289.265 108.887 289.28L108.777 289.291Z" fill="white"/>
    <path d="M106.707 315.057L102.618 317.697C102.182 316.364 101.447 315.18 100.482 314.257C99.5182 313.334 98.3579 312.705 97.113 312.429C92.6423 311.306 88.0009 311.496 84.8664 307.161C81.7319 302.825 85.5495 298.108 84.8664 294.918C84.1832 291.728 83.7412 290.807 78.1353 287.617C72.5293 284.428 70.3191 279.137 74.5386 275.554C78.7581 271.971 85.5897 274.6 89.7288 277.801C93.4058 280.609 96.902 281.35 101.011 281.923C105.12 282.496 111.811 285.045 110.786 295.716C110.115 302.32 108.746 308.813 106.707 315.057Z" fill="#4E9CFF"/>
    <path d="M91.0152 301.04C90.9082 301.039 90.8041 301.001 90.7176 300.93C90.6311 300.86 90.5666 300.761 90.533 300.647C90.4949 300.504 90.5083 300.35 90.5702 300.218C90.6321 300.086 90.7377 299.986 90.8645 299.94C91.2262 299.816 99.9063 296.738 103.593 300.041C103.685 300.137 103.741 300.269 103.75 300.409C103.759 300.549 103.72 300.688 103.642 300.798C103.563 300.909 103.451 300.982 103.327 301.004C103.202 301.026 103.075 300.995 102.97 300.917C99.7154 297.996 91.2563 300.984 91.1659 301.018L91.0152 301.04Z" fill="white"/>
    <path d="M107.159 314.204C107.036 314.205 106.918 314.155 106.827 314.063C106.736 313.972 106.679 313.846 106.666 313.71C104.426 290.055 78.9383 278.835 78.6871 278.722C78.6248 278.696 78.5678 278.656 78.5194 278.605C78.4709 278.555 78.432 278.493 78.4049 278.425C78.3778 278.357 78.363 278.284 78.3615 278.21C78.3599 278.135 78.3716 278.062 78.3958 277.992C78.4451 277.856 78.5394 277.746 78.6591 277.686C78.7787 277.625 78.9146 277.618 79.0387 277.667C79.31 277.79 105.36 289.247 107.661 313.609C107.675 313.756 107.637 313.904 107.554 314.019C107.471 314.135 107.351 314.21 107.219 314.226L107.159 314.204Z" fill="white"/>
    <path d="M357.046 299.523C357.156 299.13 361.466 274.33 357.046 256.741C353.027 240.612 347.783 234.659 340.308 233.345C332.834 232.03 329.589 238.051 333.557 246.205C337.525 254.36 347.079 265.176 349.42 283.394C350.425 290.897 351.188 297.412 351.188 297.412L357.046 299.523Z" fill="#4E9CFF"/>
    <path opacity="0.2" d="M357.046 299.523C357.156 299.13 361.466 274.33 357.046 256.741C353.027 240.612 347.783 234.659 340.308 233.345C332.834 232.03 329.589 238.051 333.557 246.205C337.525 254.36 347.079 265.176 349.42 283.394C350.425 290.897 351.188 297.412 351.188 297.412L357.046 299.523Z" fill="black"/>
    <path d="M354.523 285.28C354.457 285.276 354.392 285.257 354.333 285.225C354.273 285.193 354.22 285.148 354.176 285.092C354.132 285.037 354.099 284.973 354.077 284.903C354.056 284.833 354.047 284.759 354.051 284.685C355.055 264.602 349.188 246.676 338.67 237.882C338.563 237.792 338.493 237.659 338.474 237.512C338.455 237.364 338.489 237.214 338.569 237.095C338.651 236.979 338.769 236.902 338.901 236.881C339.032 236.86 339.165 236.896 339.272 236.983C350.052 245.969 356.1 264.299 355.045 284.752C355.038 284.899 354.978 285.037 354.881 285.136C354.783 285.235 354.655 285.286 354.523 285.28Z" fill="white"/>
    <path d="M368.608 312.44C368.035 307.824 370.406 300.905 376.042 299.265C381.678 297.625 384.19 294.008 382.16 290.055C380.131 286.101 380.603 282.473 385.717 280.833C390.831 279.194 395.311 276.341 392.368 270.298C390.228 265.929 389.756 263.098 395 254.494C399.35 247.351 395.794 243.161 390.348 243.948C384.903 244.734 381.538 251.99 378.132 253.203C374.726 254.416 373.943 247.946 369.452 250.844C364.961 253.742 365.232 261.166 365.092 266.344C364.951 271.522 364.65 272.69 360.591 272.061C356.532 271.432 352.554 272.174 352.644 283.147C352.714 292.56 357.205 304.218 357.205 304.218L368.608 312.44Z" fill="#4E9CFF"/>
    <path d="M361.486 305.421H361.435C361.301 305.404 361.178 305.328 361.093 305.21C361.009 305.092 360.969 304.942 360.983 304.792C363.816 276.498 385.537 252.631 391.203 247.79C391.31 247.699 391.444 247.659 391.577 247.679C391.71 247.699 391.83 247.777 391.911 247.896C391.992 248.015 392.028 248.166 392.01 248.314C391.992 248.463 391.922 248.597 391.816 248.688C386.22 253.462 364.781 277.015 361.988 304.915C361.973 305.053 361.914 305.181 361.822 305.274C361.729 305.367 361.61 305.419 361.486 305.421Z" fill="white"/>
    <path d="M371.39 275.172C371.289 275.171 371.19 275.136 371.105 275.072C371.021 275.008 370.956 274.918 370.918 274.812C370.875 274.671 370.883 274.516 370.939 274.38C370.995 274.244 371.095 274.138 371.22 274.082C379.317 270.713 388.5 272.308 388.891 272.375C389.021 272.4 389.138 272.481 389.215 272.601C389.292 272.721 389.324 272.869 389.303 273.015C389.279 273.16 389.206 273.289 389.1 273.377C388.994 273.464 388.862 273.504 388.731 273.487C388.64 273.487 379.418 271.87 371.571 275.138C371.513 275.16 371.452 275.171 371.39 275.172Z" fill="white"/>
    <path d="M364.178 292.178C364.107 292.177 364.038 292.16 363.974 292.127C363.91 292.094 363.853 292.046 363.806 291.987C360.439 287.603 358.156 282.309 357.185 276.633C357.175 276.56 357.178 276.485 357.194 276.414C357.21 276.342 357.238 276.274 357.278 276.215C357.317 276.156 357.366 276.105 357.423 276.067C357.479 276.029 357.542 276.004 357.607 275.993C357.673 275.982 357.739 275.985 357.804 276.003C357.868 276.02 357.928 276.052 357.981 276.096C358.034 276.14 358.079 276.195 358.114 276.258C358.148 276.321 358.17 276.391 358.18 276.465C359.141 281.917 361.337 287.003 364.56 291.235C364.622 291.317 364.663 291.418 364.676 291.526C364.69 291.633 364.676 291.743 364.636 291.841C364.596 291.94 364.531 292.024 364.45 292.084C364.369 292.144 364.275 292.176 364.178 292.178Z" fill="white"/>
    <path d="M106.709 141.219V315.067L265.865 212.34L265.855 54.2949L147.518 130.683L143.429 117.508L106.709 141.219Z" fill="#4E9CFF"/>
    <path opacity="0.7" d="M106.709 141.219V315.067L265.865 212.34L265.855 54.2949L147.518 130.683L143.429 117.508L106.709 141.219Z" fill="black"/>
    <path d="M106.709 315.067L114.867 157.022L274.022 54.2949L265.865 212.34L106.709 315.067Z" fill="#E0E0E0"/>
    <path d="M106.709 315.067L118.946 159.662L278.101 56.9238L265.865 212.34L106.709 315.067Z" fill="#4E9CFF"/>
    <path opacity="0.7" d="M106.709 315.067L118.946 159.662L278.101 56.9238L265.865 212.34L106.709 315.067Z" fill="black"/>
    <path d="M131.191 157.024V330.883L290.347 228.144V70.0996L172 146.488L167.921 133.313L131.191 157.024Z" fill="#4E9CFF"/>
    <path opacity="0.5" d="M131.191 157.024V330.883L290.347 228.144V70.0996L172 146.488L167.921 133.313L131.191 157.024Z" fill="black"/>
    <path d="M131.191 330.883L139.349 172.827L298.505 70.0996L290.347 228.144L131.191 330.883Z" fill="#E0E0E0"/>
    <path d="M131.191 330.883L143.428 175.467L302.584 72.7285L290.347 228.145L131.191 330.883Z" fill="#4E9CFF"/>
    <path opacity="0.5" d="M131.191 330.883L143.428 175.467L302.584 72.7285L290.347 228.145L131.191 330.883Z" fill="black"/>
    <path d="M265.825 386.2C237.253 367.757 210.75 347.708 198.654 324.188L235.424 300.455L265.825 386.2Z" fill="#E0E0E0"/>
    <path d="M159.754 175.465V349.313L318.91 246.586V88.541L200.563 164.929L196.484 151.754L159.754 175.465Z" fill="#4E9CFF"/>
    <path opacity="0.2" d="M159.754 175.465V349.313L318.91 246.586V88.541L200.563 164.929L196.484 151.754L159.754 175.465Z" fill="black"/>
    <path d="M205.607 226.863C205.205 226.863 205.145 226.346 205.145 226.043V77.7816C205.177 77.2064 205.328 76.6475 205.586 76.1486C205.844 75.6497 206.202 75.2244 206.631 74.9062L321.502 0.775418C321.66 0.665721 321.84 0.603773 322.025 0.595703C322.427 0.595703 322.487 1.11238 322.487 1.41564V149.677C322.455 150.254 322.305 150.815 322.047 151.316C321.789 151.817 321.431 152.244 321 152.564L206.129 226.695C205.97 226.799 205.791 226.857 205.607 226.863Z" fill="white"/>
    <path d="M321.965 1.11214C321.973 1.19426 321.973 1.27713 321.965 1.35924V149.621C321.932 150.099 321.803 150.563 321.59 150.979C321.376 151.395 321.082 151.752 320.729 152.024L205.858 226.155L205.657 226.256C205.644 226.175 205.644 226.091 205.657 226.009V77.7477C205.691 77.2714 205.82 76.8097 206.034 76.396C206.248 75.9822 206.541 75.6267 206.893 75.3553L321.764 1.22446C321.827 1.17491 321.899 1.1405 321.975 1.12337L321.965 1.11214ZM322.035 0.000179435C321.761 0.00928537 321.495 0.098356 321.261 0.258518L206.39 74.3893C205.885 74.7602 205.465 75.2581 205.163 75.8433C204.862 76.4284 204.687 77.0845 204.652 77.7589V226.02C204.652 226.897 205.044 227.402 205.657 227.402C205.931 227.394 206.198 227.305 206.431 227.144L321.302 153.013C321.809 152.645 322.231 152.147 322.533 151.562C322.835 150.976 323.009 150.319 323.04 149.643V1.38171C323.04 0.50562 322.648 -0.0110525 322.035 0.000179435Z" fill="#4E9CFF"/>
    <path opacity="0.7" d="M321.965 1.11214C321.973 1.19426 321.973 1.27713 321.965 1.35924V149.621C321.932 150.099 321.803 150.563 321.59 150.979C321.376 151.395 321.082 151.752 320.729 152.024L205.858 226.155L205.657 226.256C205.644 226.175 205.644 226.091 205.657 226.009V77.7477C205.691 77.2714 205.82 76.8097 206.034 76.396C206.248 75.9822 206.541 75.6267 206.893 75.3553L321.764 1.22446C321.827 1.17491 321.899 1.1405 321.975 1.12337L321.965 1.11214ZM322.035 0.000179435C321.761 0.00928537 321.495 0.098356 321.261 0.258518L206.39 74.3893C205.885 74.7602 205.465 75.2581 205.163 75.8433C204.862 76.4284 204.687 77.0845 204.652 77.7589V226.02C204.652 226.897 205.044 227.402 205.657 227.402C205.931 227.394 206.198 227.305 206.431 227.144L321.302 153.013C321.809 152.645 322.231 152.147 322.533 151.562C322.835 150.976 323.009 150.319 323.04 149.643V1.38171C323.04 0.50562 322.648 -0.0110525 322.035 0.000179435Z" fill="white"/>
    <path d="M216.889 83.4092L257.697 57.0703V109.748L216.889 136.087V83.4092Z" fill="#4E9CFF"/>
    <path opacity="0.8" d="M216.889 83.4092L257.697 57.0703V109.748L216.889 136.087V83.4092Z" fill="white"/>
    <path d="M251.579 70.1992V86.0363L250.293 86.8337V81.9928C250.293 79.3196 248.354 78.4098 245.943 79.9598L228.653 91.1355C226.252 92.6856 224.303 96.1113 224.303 98.7845V103.625L223.027 104.479V88.6758L251.579 70.1992Z" fill="white"/>
    <path d="M243.723 110.523C241.633 111.871 239.935 110.456 239.935 107.345V81.9941L234.681 85.184V110.737C234.681 113.837 232.983 117.476 230.893 118.79L227.096 121.239V122.923L247.5 109.748V108.075L243.723 110.523Z" fill="white"/>
    <path d="M265.824 54.4741C265.824 55.9343 267 56.3499 268.436 55.4289L308.14 29.7639C308.844 29.3175 309.447 28.6948 309.9 27.9445C310.353 27.1943 310.645 26.3369 310.752 25.4396C310.752 23.9907 309.576 23.5639 308.14 24.4961L268.466 50.1049C267.75 50.5505 267.138 51.1781 266.679 51.9371C266.22 52.6961 265.927 53.5652 265.824 54.4741Z" fill="#455A64"/>
    <path d="M265.824 70.1992C265.824 71.6594 267 72.0862 268.436 71.154L308.11 45.5451C308.814 45.0987 309.417 44.476 309.87 43.7258C310.323 42.9755 310.615 42.1182 310.722 41.2208C310.722 39.7719 309.546 39.3451 308.11 40.2774L268.436 65.8862C267.733 66.3315 267.131 66.9524 266.678 67.7006C266.225 68.4488 265.933 69.3039 265.824 70.1992Z" fill="#455A64"/>
    <path d="M265.824 86.0366C265.824 87.4968 267 87.9236 268.436 86.9913L308.11 61.3825C308.813 60.9372 309.415 60.3162 309.868 59.5681C310.321 58.8199 310.613 57.9648 310.722 57.0694C310.722 55.6093 309.546 55.1825 308.11 56.1147L268.436 81.7235C267.733 82.1688 267.131 82.7898 266.678 83.538C266.225 84.2862 265.933 85.1413 265.824 86.0366Z" fill="#455A64"/>
    <path d="M265.824 101.839C265.824 103.299 267 103.726 268.436 102.794L308.11 77.1852C308.813 76.74 309.415 76.119 309.868 75.3708C310.321 74.6226 310.613 73.7675 310.722 72.8722C310.722 71.412 309.546 70.9852 308.11 71.9175L268.436 97.5263C267.733 97.9716 267.131 98.5925 266.678 99.3407C266.225 100.089 265.933 100.944 265.824 101.839Z" fill="#455A64"/>
    <path d="M216.889 149.262C216.889 150.722 218.054 151.149 219.501 150.217L308.14 92.9342C308.845 92.4902 309.447 91.8696 309.9 91.1212C310.354 90.3728 310.645 89.517 310.753 88.6211C310.753 87.161 309.577 86.7454 308.14 87.6664L219.501 144.949C218.796 145.393 218.193 146.013 217.74 146.761C217.287 147.51 216.995 148.366 216.889 149.262Z" fill="#455A64"/>
    <path d="M216.889 165.066C216.889 166.526 218.054 166.953 219.501 166.02L308.14 108.805C308.845 108.358 309.447 107.736 309.901 106.986C310.354 106.235 310.645 105.378 310.753 104.481C310.753 103.032 309.577 102.605 308.14 103.537L219.501 160.753C218.796 161.196 218.193 161.816 217.74 162.565C217.287 163.313 216.995 164.17 216.889 165.066Z" fill="#455A64"/>
    <path d="M216.889 180.88C216.889 182.329 218.054 182.755 219.501 181.823L308.14 124.608C308.845 124.161 309.447 123.539 309.901 122.788C310.354 122.038 310.645 121.181 310.753 120.283C310.753 118.834 309.577 118.408 308.14 119.34L219.501 176.555C218.795 177 218.191 177.622 217.738 178.372C217.284 179.123 216.994 179.982 216.889 180.88Z" fill="#455A64"/>
    <path d="M159.754 349.313L188.316 209.711L347.472 106.973L318.91 246.586L159.754 349.313Z" fill="#4E9CFF"/>
    <path d="M198.693 220.641V324.188L235.423 300.477V196.941L198.693 220.641Z" fill="#4E9CFF"/>
    <path opacity="0.2" d="M198.693 220.641V324.188L235.423 300.477V196.941L198.693 220.641Z" fill="black"/>
    <path d="M265.894 385.526C262.77 382.92 232.65 357.188 217.34 320.381C201.044 281.248 201.064 235.602 201.064 218.428V217.889L310.249 147.42C310.249 164.751 310.249 210.465 326.615 249.732C341.574 285.674 370.538 311.08 375.129 314.967L265.894 385.526Z" fill="white"/>
    <path d="M309.747 148.43C309.747 166.491 310.058 211.329 326.163 250.012C340.619 284.719 368.106 309.676 374.225 314.944L265.924 384.852C261.695 381.291 232.711 355.985 217.802 320.189C201.526 281.169 201.526 235.613 201.526 218.462V218.248L309.707 148.419L309.747 148.43ZM310.711 146.476L200.522 217.608C200.522 233.771 200.22 280.731 216.847 320.661C233.213 359.849 265.824 386.199 265.824 386.199L376.043 315.056C376.043 315.056 343.392 288.706 327.077 249.518C310.44 209.588 310.751 162.628 310.751 146.465L310.711 146.476Z" fill="#4E9CFF"/>
    <path opacity="0.7" d="M309.747 148.43C309.747 166.491 310.058 211.329 326.163 250.012C340.619 284.719 368.106 309.676 374.225 314.944L265.924 384.852C261.695 381.291 232.711 355.985 217.802 320.189C201.526 281.169 201.526 235.613 201.526 218.462V218.248L309.707 148.419L309.747 148.43ZM310.711 146.476L200.522 217.608C200.522 233.771 200.22 280.731 216.847 320.661C233.213 359.849 265.824 386.199 265.824 386.199L376.043 315.056C376.043 315.056 343.392 288.706 327.077 249.518C310.44 209.588 310.751 162.628 310.751 146.465L310.711 146.476Z" fill="white"/>
    <path d="M298.285 170.333L263.444 192.797C262.746 193.226 262.152 193.837 261.711 194.579C261.27 195.32 260.996 196.169 260.912 197.054C260.962 198.48 262.178 198.885 263.615 197.953L298.466 175.489C299.155 175.064 299.743 174.461 300.182 173.73C300.62 172.999 300.897 172.162 300.987 171.288C300.927 169.805 299.732 169.401 298.285 170.333Z" fill="#455A64"/>
    <path d="M299.028 185.665L264.187 208.129C263.498 208.543 262.914 209.146 262.489 209.88C262.064 210.615 261.812 211.457 261.756 212.33C261.866 213.711 263.132 214.082 264.569 213.15L299.42 190.686C300.106 190.273 300.686 189.672 301.106 188.939C301.526 188.206 301.772 187.365 301.821 186.496C301.721 185.104 300.475 184.767 299.028 185.665Z" fill="#455A64"/>
    <path d="M300.424 200.569L265.573 223.033C264.136 223.965 263.092 225.819 263.262 227.155C263.433 228.492 264.749 228.84 266.196 227.908L301.047 205.444C302.484 204.512 303.508 202.67 303.328 201.333C303.147 199.996 301.861 199.637 300.424 200.569Z" fill="#455A64"/>
    <path d="M302.515 215.025L267.664 237.489C266.227 238.421 265.232 240.241 265.474 241.544C265.715 242.847 267.081 243.139 268.487 242.207L303.329 219.743C304.775 218.811 305.74 217.002 305.499 215.699C305.257 214.396 304.002 214.093 302.515 215.025Z" fill="#455A64"/>
    <path d="M305.347 228.997L270.495 251.461C269.059 252.393 268.125 254.168 268.486 255.414C268.848 256.661 270.224 256.942 271.661 256.01L306.512 233.546C307.959 232.614 308.863 230.85 308.521 229.592C308.18 228.334 306.783 228.065 305.347 228.997Z" fill="#455A64"/>
    <path d="M309.023 242.464L224.091 297.287C222.654 298.219 221.78 299.949 222.172 301.151C222.564 302.353 224.061 302.577 225.497 301.645L310.43 246.822C311.876 245.89 312.71 244.171 312.319 242.958C311.927 241.745 310.41 241.532 309.023 242.464Z" fill="#455A64"/>
    <path d="M313.494 255.325L228.571 310.148C227.125 311.08 226.331 312.765 226.813 313.911C227.295 315.057 228.822 315.236 230.289 314.304L315.222 259.481C316.668 258.549 317.442 256.864 316.96 255.718C316.478 254.573 314.94 254.404 313.494 255.325Z" fill="#455A64"/>
    <path d="M319.071 267.58L234.139 322.403C232.692 323.335 231.979 324.975 232.551 326.064C233.124 327.154 234.762 327.266 236.208 326.334L321.081 271.511C322.517 270.59 323.21 268.961 322.638 267.872C322.065 266.782 320.478 266.647 319.071 267.58Z" fill="#455A64"/>
    <path d="M325.57 279.17L240.647 333.982C239.2 334.914 238.557 336.52 239.21 337.542C239.863 338.564 241.581 338.666 243.028 337.722L327.951 282.899C329.397 281.967 330.02 280.383 329.367 279.35C328.714 278.316 327.016 278.238 325.57 279.17Z" fill="#455A64"/>
    <path d="M332.985 290.188L248.052 345C246.615 345.933 246.043 347.494 246.766 348.471C247.489 349.448 249.268 349.493 250.714 348.561L335.647 293.715C337.083 292.783 337.656 291.244 336.913 290.267C336.169 289.29 334.431 289.222 332.985 290.188Z" fill="#455A64"/>
    <path d="M341.172 300.679L256.27 355.491C254.823 356.423 254.26 357.951 255.104 358.861C255.948 359.77 257.736 359.793 259.173 358.861L344.106 304.038C345.552 303.105 346.055 301.6 345.251 300.668C344.447 299.736 342.639 299.758 341.172 300.679Z" fill="#455A64"/>
    <path d="M350.215 310.709L265.282 365.521C263.846 366.453 263.374 367.947 264.278 368.834C265.182 369.722 267.03 369.688 268.477 368.756L353.339 313.933C354.776 313 355.228 311.54 354.344 310.642C353.46 309.743 351.621 309.777 350.215 310.709Z" fill="#455A64"/>
    <path d="M250.815 200.984L210.75 226.818C211.192 243.048 212.85 266.455 218.918 290.031L258.993 264.198C252.915 240.622 251.257 217.203 250.815 200.984Z" fill="#4E9CFF"/>
    <path opacity="0.8" d="M250.815 200.984L210.75 226.818C211.192 243.048 212.85 266.455 218.918 290.031L258.993 264.198C252.915 240.622 251.257 217.203 250.815 200.984Z" fill="white"/>
    <path d="M227.086 223.246C227.14 222.198 226.994 221.15 226.658 220.17C226.322 219.19 225.803 218.301 225.137 217.562L210.75 226.84C210.871 231.131 211.071 235.927 211.423 241.093C213.295 241.334 215.187 240.943 216.858 239.97C222.514 237.072 227.086 229.558 227.086 223.246Z" fill="#4E9CFF"/>
    <path opacity="0.6" d="M227.086 223.246C227.14 222.198 226.994 221.15 226.658 220.17C226.322 219.19 225.803 218.301 225.137 217.562L210.75 226.84C210.871 231.131 211.071 235.927 211.423 241.093C213.295 241.334 215.187 240.943 216.858 239.97C222.514 237.072 227.086 229.558 227.086 223.246Z" fill="white"/>
    <path d="M255.587 248.698C252.915 244.935 247.48 233.31 245.159 228.244C245.068 228.044 244.925 227.879 244.749 227.771C244.573 227.662 244.372 227.615 244.172 227.636C243.972 227.656 243.782 227.743 243.626 227.886C243.471 228.028 243.358 228.22 243.3 228.435C240.79 238.03 239.332 247.931 238.96 257.919C235.614 254.949 232.738 251.373 230.451 247.339C230.354 247.182 230.218 247.06 230.061 246.987C229.903 246.914 229.731 246.893 229.563 246.926C229.395 246.959 229.239 247.045 229.113 247.174C228.988 247.303 228.898 247.469 228.854 247.653C224.473 266.512 226.674 285.067 226.674 285.067L258.993 264.198C257.647 258.986 256.532 253.797 255.587 248.698Z" fill="#4E9CFF"/>
    <path opacity="0.6" d="M255.587 248.698C252.915 244.935 247.48 233.31 245.159 228.244C245.068 228.044 244.925 227.879 244.749 227.771C244.573 227.662 244.372 227.615 244.172 227.636C243.972 227.656 243.782 227.743 243.626 227.886C243.471 228.028 243.358 228.22 243.3 228.435C240.79 238.03 239.332 247.931 238.96 257.919C235.614 254.949 232.738 251.373 230.451 247.339C230.354 247.182 230.218 247.06 230.061 246.987C229.903 246.914 229.731 246.893 229.563 246.926C229.395 246.959 229.239 247.045 229.113 247.174C228.988 247.303 228.898 247.469 228.854 247.653C224.473 266.512 226.674 285.067 226.674 285.067L258.993 264.198C257.647 258.986 256.532 253.797 255.587 248.698Z" fill="white"/>
    </svg>
