<svg width="19" height="17" viewBox="0 0 19 17" fill="none" xmlns="http://www.w3.org/2000/svg">
<path d="M17.4948 3.10742H16.5765V2.19076C16.5765 1.94764 16.4797 1.71448 16.3075 1.54258C16.1353 1.37067 15.9017 1.27409 15.6581 1.27409C15.4146 1.27409 15.181 1.37067 15.0088 1.54258C14.8365 1.71448 14.7398 1.94764 14.7398 2.19076V3.10742H13.8215C13.5779 3.10742 13.3443 3.204 13.1721 3.37591C12.9999 3.54782 12.9031 3.78097 12.9031 4.02409C12.9031 4.2672 12.9999 4.50036 13.1721 4.67227C13.3443 4.84418 13.5779 4.94076 13.8215 4.94076H14.7398V5.85742C14.7398 6.10054 14.8365 6.3337 15.0088 6.5056C15.181 6.67751 15.4146 6.77409 15.6581 6.77409C15.9017 6.77409 16.1353 6.67751 16.3075 6.5056C16.4797 6.3337 16.5765 6.10054 16.5765 5.85742V4.94076H17.4948C17.7383 4.94076 17.9719 4.84418 18.1441 4.67227C18.3164 4.50036 18.4131 4.2672 18.4131 4.02409C18.4131 3.78097 18.3164 3.54782 18.1441 3.37591C17.9719 3.204 17.7383 3.10742 17.4948 3.10742ZM7.39316 7.69076C8.11967 7.69076 8.82987 7.47571 9.43394 7.07281C10.038 6.66991 10.5088 6.09726 10.7869 5.42726C11.0649 4.75727 11.1376 4.02002 10.9959 3.30876C10.8542 2.5975 10.5043 1.94416 9.99059 1.43136C9.47686 0.918572 8.82234 0.569357 8.10979 0.427877C7.39723 0.286398 6.65865 0.359011 5.98744 0.636532C5.31622 0.914053 4.74253 1.38402 4.3389 1.987C3.93527 2.58998 3.71983 3.29889 3.71983 4.02409C3.71983 4.99655 4.10684 5.92918 4.79573 6.61681C5.48461 7.30445 6.41893 7.69076 7.39316 7.69076ZM7.39316 2.19076C7.75641 2.19076 8.11151 2.29828 8.41355 2.49973C8.71559 2.70118 8.951 2.98751 9.09001 3.3225C9.22902 3.6575 9.26539 4.02612 9.19452 4.38176C9.12366 4.73739 8.94873 5.06406 8.69187 5.32045C8.43501 5.57685 8.10775 5.75146 7.75147 5.8222C7.39519 5.89294 7.0259 5.85663 6.6903 5.71787C6.35469 5.57911 6.06784 5.34412 5.86603 5.04263C5.66421 4.74114 5.55649 4.38669 5.55649 4.02409C5.55649 3.53786 5.75 3.07154 6.09444 2.72773C6.43888 2.38391 6.90604 2.19076 7.39316 2.19076ZM7.39316 9.52409C5.68826 9.52409 4.05319 10.2001 2.84765 11.4035C1.64211 12.6068 0.964844 14.2389 0.964844 15.9408C0.964844 16.1839 1.0616 16.417 1.23382 16.5889C1.40604 16.7608 1.63962 16.8574 1.88317 16.8574C2.12673 16.8574 2.36031 16.7608 2.53253 16.5889C2.70475 16.417 2.8015 16.1839 2.8015 15.9408C2.8015 14.7252 3.28527 13.5594 4.14637 12.6998C5.00747 11.8403 6.17537 11.3574 7.39316 11.3574C8.61094 11.3574 9.77884 11.8403 10.6399 12.6998C11.501 13.5594 11.9848 14.7252 11.9848 15.9408C11.9848 16.1839 12.0816 16.417 12.2538 16.5889C12.426 16.7608 12.6596 16.8574 12.9031 16.8574C13.1467 16.8574 13.3803 16.7608 13.5525 16.5889C13.7247 16.417 13.8215 16.1839 13.8215 15.9408C13.8215 14.2389 13.1442 12.6068 11.9387 11.4035C10.7331 10.2001 9.09805 9.52409 7.39316 9.52409Z" fill="white"/>
</svg>
