<svg width="150" height="150" viewBox="0 0 150 150" fill="none" xmlns="http://www.w3.org/2000/svg">
<circle cx="75" cy="75" r="75" fill="#C1D2ED"/>
<path d="M75 107.864H85.1818V41.9777L117.733 55.8645C118.649 56.2555 119.43 56.9059 119.979 57.7348C120.527 58.5637 120.819 59.5346 120.818 60.5272V107.864H131V118H19V107.864H29.1818V40.2039C29.1817 39.2233 29.4673 38.2637 30.0041 37.4415C30.5408 36.6193 31.3057 35.9697 32.2058 35.5716L71.4211 18.2183C71.8091 18.0467 72.234 17.9744 72.6571 18.008C73.0803 18.0417 73.4883 18.1801 73.844 18.4108C74.1997 18.6415 74.4918 18.9571 74.6937 19.3289C74.8956 19.7007 75.0009 20.1168 75 20.5395V107.864Z" fill="white"/>
</svg>
