<svg width="250" height="230" viewBox="0 0 250 230" fill="none" xmlns="http://www.w3.org/2000/svg">
    <path d="M124.608 229.239C193.428 229.239 249.217 225.892 249.217 221.764C249.217 217.636 193.428 214.289 124.608 214.289C55.7891 214.289 0 217.636 0 221.764C0 225.892 55.7891 229.239 124.608 229.239Z" fill="#F5F5F5"/>
    <path d="M198.611 53.8823C199.511 56.9793 204.151 62.777 204.517 66.9966C204.884 71.2161 196.972 77.9647 196.972 77.9647C196.972 77.9647 191.06 57.6528 194.762 55.2822C198.463 52.9116 198.611 53.8823 198.611 53.8823Z" fill="#263238"/>
    <path d="M182.364 75.8245C180.963 77.0263 179.588 78.0366 178.155 79.0733C176.721 80.11 175.243 81.0543 173.739 81.9392C172.23 82.8567 170.675 83.6921 169.08 84.4418C168.27 84.8182 167.467 85.188 166.631 85.5116C166.22 85.6833 165.802 85.8483 165.378 85.9936L164.093 86.4559C162.994 86.7716 161.844 86.8569 160.712 86.7068C159.766 86.5931 158.83 86.4077 157.91 86.1521C156.197 85.6648 154.519 85.0513 152.891 84.3164C149.731 82.8986 146.682 81.2318 143.771 79.3308L144.973 77.0329C146.49 77.6932 148.045 78.3535 149.588 78.928C151.13 79.5025 152.685 80.11 154.241 80.6053C155.757 81.1159 157.302 81.5305 158.868 81.8467C159.587 81.9911 160.315 82.0816 161.047 82.1174C161.592 82.1609 162.141 82.1027 162.666 81.9458C164.132 81.3693 165.566 80.7079 166.959 79.9648C167.673 79.5818 168.38 79.1922 169.074 78.7696C169.768 78.3469 170.475 77.9375 171.162 77.5017C172.544 76.6235 173.894 75.6924 175.23 74.7349C176.567 73.7774 177.898 72.7539 179.087 71.7832L182.364 75.8245Z" fill="#E58A7B"/>
    <path d="M185.759 68.7922C184.165 67.5112 177.571 71.7043 175.572 73.4542L177.031 82.5206C177.031 82.5206 186.511 78.4397 187.076 75.6531C187.674 72.741 186.948 69.7695 185.759 68.7922Z" fill="#407BFF"/>
    <path opacity="0.2" d="M185.759 68.7922C184.165 67.5112 177.571 71.7043 175.572 73.4542L177.031 82.5206C177.031 82.5206 186.511 78.4397 187.076 75.6531C187.674 72.741 186.948 69.7695 185.759 68.7922Z" fill="black"/>
    <path d="M207.938 96.2287L187.925 100.237C177.584 71.4661 179.834 70.5219 179.834 70.5219C181.288 69.7008 182.79 68.973 184.332 68.3428L184.602 68.2371C185.888 67.7551 186.145 67.6824 187.854 67.1674C190.798 66.4476 193.542 65.8467 196.942 65.3514L197.584 65.259C198.227 65.1797 198.812 65.1137 199.403 65.0543C199.802 65.0081 200.2 64.9817 200.579 64.9552L201.865 64.8826C204.063 64.7703 205.637 64.8034 205.637 64.8034C205.027 82.7711 206.016 87.9283 207.938 96.2287Z" fill="#407BFF"/>
    <path opacity="0.2" d="M207.938 96.2287L187.925 100.237C177.584 71.4661 179.834 70.5219 179.834 70.5219C181.288 69.7008 182.79 68.973 184.332 68.3428L184.602 68.2371C185.888 67.7551 186.145 67.6824 187.854 67.1674C190.798 66.4476 193.542 65.8467 196.942 65.3514L197.584 65.259C198.227 65.1797 198.812 65.1137 199.403 65.0543C199.802 65.0081 200.2 64.9817 200.579 64.9552L201.865 64.8826C204.063 64.7703 205.637 64.8034 205.637 64.8034C205.027 82.7711 206.016 87.9283 207.938 96.2287Z" fill="black"/>
    <path d="M192.263 55.9481C190.977 58.1338 195.637 59.1441 198.394 56.9056C200.598 55.1095 200.078 50.9625 198.188 49.9985C196.299 49.0344 192.263 55.9481 192.263 55.9481Z" fill="#407BFF"/>
    <path opacity="0.4" d="M192.263 55.9481C190.977 58.1338 195.637 59.1441 198.394 56.9056C200.598 55.1095 200.078 50.9625 198.188 49.9985C196.299 49.0344 192.263 55.9481 192.263 55.9481Z" fill="black"/>
    <path d="M211.742 215.314L206.736 215.697L204.904 203.858L209.911 203.475L211.742 215.314Z" fill="#E58A7B"/>
    <path d="M247.154 198.766L242.906 201.513L235.342 192.295L239.59 189.541L247.154 198.766Z" fill="#E58A7B"/>
    <path d="M204.904 203.857L205.92 210.434L210.855 209.582L209.917 203.48L204.904 203.857Z" fill="#CF6F64"/>
    <path d="M239.596 189.547L235.342 192.294L238.478 196.111L242.823 193.476L239.596 189.547Z" fill="#CF6F64"/>
    <path d="M188.233 100.237C188.233 100.237 188.162 141.059 191.407 156.431C194.788 172.424 204.73 208.809 204.73 208.809L211.941 207.851C211.941 207.851 206.305 171.097 203.901 155.203C201.285 137.882 202.892 97.3047 202.892 97.3047L188.233 100.237Z" fill="#407BFF"/>
    <path opacity="0.7" d="M188.233 100.237C188.233 100.237 188.162 141.059 191.407 156.431C194.788 172.424 204.73 208.809 204.73 208.809L211.941 207.851C211.941 207.851 206.305 171.097 203.901 155.203C201.285 137.882 202.892 97.3047 202.892 97.3047L188.233 100.237Z" fill="black"/>
    <path opacity="0.5" d="M202.443 115.398L198.908 111.779C199.043 127.462 199.898 135.208 202.835 143.647C202.372 134.726 202.334 124.174 202.443 115.398Z" fill="black"/>
    <path d="M193.207 99.1802C193.207 99.1802 203.985 132.917 209.332 152.35C214.974 172.854 236.607 195.53 236.607 195.53L242.815 191.845C242.815 191.845 228.034 170.318 222.597 151.188C211.543 112.354 216.086 104.126 207.931 96.2285L193.207 99.1802Z" fill="#407BFF"/>
    <path opacity="0.7" d="M193.207 99.1802C193.207 99.1802 203.985 132.917 209.332 152.35C214.974 172.854 236.607 195.53 236.607 195.53L242.815 191.845C242.815 191.845 228.034 170.318 222.597 151.188C211.543 112.354 216.086 104.126 207.931 96.2285L193.207 99.1802Z" fill="black"/>
    <path d="M184.735 44.0352C187.601 45.0191 190.204 52.329 190.313 55.208C190.423 58.0871 182.01 62.0557 182.01 62.0557C182.01 62.0557 178.302 52.811 179.337 46.868C179.786 44.2861 184.735 44.0352 184.735 44.0352Z" fill="#263238"/>
    <path d="M145.398 77.2762L141.999 73.4727L140.887 78.2403C140.887 78.2403 143.303 80.4326 145.257 79.6798L145.398 77.2762Z" fill="#E58A7B"/>
    <path d="M138.554 72.3848L136.176 74.3262L140.887 78.2419L141.998 73.4743L138.554 72.3848Z" fill="#E58A7B"/>
    <path d="M241.576 200.528L245.548 196.414C245.616 196.344 245.707 196.301 245.804 196.294C245.901 196.287 245.997 196.315 246.075 196.375L249.693 199.135C249.782 199.207 249.856 199.298 249.909 199.402C249.962 199.505 249.992 199.619 249.999 199.736C250.006 199.853 249.988 199.97 249.948 200.079C249.907 200.188 249.844 200.287 249.764 200.37C248.35 201.776 247.604 202.384 245.856 204.193C244.783 205.309 243.324 207.046 241.839 208.584C240.355 210.123 238.793 208.69 239.269 207.924C241.434 204.444 241.049 203.143 241.197 201.374C241.219 201.054 241.354 200.753 241.576 200.528Z" fill="#263238"/>
    <path d="M206.401 214.957H212.044C212.143 214.957 212.239 214.992 212.316 215.058C212.392 215.123 212.444 215.213 212.462 215.314L213.349 219.896C213.369 220.009 213.364 220.125 213.335 220.236C213.307 220.346 213.254 220.449 213.183 220.537C213.111 220.624 213.021 220.695 212.92 220.743C212.819 220.791 212.708 220.815 212.597 220.814C210.624 220.781 209.673 220.662 207.192 220.662C205.669 220.662 202.52 220.821 200.412 220.821C198.304 220.821 198.079 218.681 198.946 218.49C202.802 217.618 204.313 216.423 205.579 215.274C205.808 215.072 206.099 214.96 206.401 214.957Z" fill="#263238"/>
    <g style="mix-blend-mode:multiply" opacity="0.27">
    <path d="M206.286 75.2168L203.201 77.1054L206.762 90.8601C205.984 86.6934 206.331 82.1173 206.286 75.2168Z" fill="#407BFF"/>
    </g>
    <path d="M188.752 53.7427C190.943 55.6246 194.125 58.365 197.872 55.1624C201.085 52.4022 203.334 45.1583 197.569 44.8942C194.555 44.7555 188.752 53.7427 188.752 53.7427Z" fill="#263238"/>
    <path d="M194.05 55.0312C194.05 58.148 194.519 63.7675 196.942 65.3655C196.942 65.3655 196.723 68.5747 191.286 69.6577C185.316 70.8529 187.855 67.1814 187.855 67.1814C190.965 65.7287 190.425 63.259 189.397 61.0403L194.05 55.0312Z" fill="#E58A7B"/>
    <path d="M192.153 57.4805L189.402 61.0397C189.643 61.5541 189.841 62.0887 189.994 62.6377C191.202 62.2019 192.648 60.4586 192.526 59.0917C192.499 58.5356 192.373 57.9893 192.153 57.4805V57.4805Z" fill="#CF6F64"/>
    <path d="M194.338 47.8725C194.981 52.9505 195.373 55.0834 193.394 58.154C190.418 62.7763 184.21 62.4792 182.095 57.7049C180.167 53.4062 179.448 45.8189 183.843 42.8804C184.81 42.223 185.924 41.8306 187.08 41.7406C188.236 41.6507 189.395 41.8662 190.447 42.3665C191.499 42.8669 192.409 43.6356 193.09 44.5993C193.771 45.5631 194.201 46.6899 194.338 47.8725Z" fill="#E58A7B"/>
    <path d="M185.752 38.9777C182.41 41.4143 189.113 42.1341 189.12 45.6669C189.12 47.1262 191.453 51.7552 194.769 51.4911L197.982 45.6273C201.363 40.0144 193.374 33.4111 185.752 38.9777Z" fill="#263238"/>
    <path d="M185.75 38.9778C179.87 38.6608 177.306 43.4681 177.98 47.7866C182.083 46.7357 186.326 46.3899 190.538 46.7631C198.597 47.6084 185.75 38.9778 185.75 38.9778Z" fill="#263238"/>
    <path d="M195.944 52.2495C196.026 53.2352 195.723 54.2138 195.102 54.9701C194.273 55.9672 193.174 55.3795 192.789 54.1975C192.461 53.1277 192.499 51.325 193.618 50.7571C193.865 50.6397 194.136 50.5874 194.408 50.6048C194.68 50.6223 194.943 50.709 195.174 50.8571C195.404 51.0052 195.596 51.21 195.73 51.4531C195.865 51.6962 195.938 51.9699 195.944 52.2495V52.2495Z" fill="#E58A7B"/>
    <path d="M187.199 50.7588C187.276 51.1682 187.128 51.5379 186.871 51.5908C186.614 51.6436 186.338 51.353 186.261 50.9304C186.184 50.5078 186.331 50.1446 186.588 50.0918C186.846 50.039 187.122 50.3493 187.199 50.7588Z" fill="#263238"/>
    <path d="M182.705 51.6567C182.782 52.0661 182.634 52.4425 182.377 52.4953C182.12 52.5482 181.844 52.2576 181.767 51.835C181.689 51.4124 181.837 51.0492 182.094 51.003C182.351 50.9567 182.628 51.2407 182.705 51.6567Z" fill="#263238"/>
    <path d="M182.218 51.0097L181.209 50.9238C181.209 50.9238 181.845 51.5908 182.218 51.0097Z" fill="#263238"/>
    <path d="M184.029 52.125C183.848 53.1253 183.537 54.096 183.104 55.0107C183.334 55.121 183.585 55.1782 183.839 55.1782C184.094 55.1782 184.345 55.121 184.575 55.0107L184.029 52.125Z" fill="#DF5753"/>
    <path d="M186.252 56.3321C186.225 56.3325 186.198 56.3228 186.177 56.3046C186.155 56.2864 186.141 56.2611 186.137 56.2331C186.134 56.2175 186.134 56.2014 186.138 56.1859C186.141 56.1704 186.147 56.1558 186.156 56.1428C186.165 56.1299 186.177 56.119 186.19 56.1106C186.203 56.1023 186.218 56.0968 186.233 56.0944C186.73 56.0056 187.199 55.7979 187.603 55.4882C188.007 55.1785 188.335 54.7754 188.56 54.3115C188.565 54.2968 188.574 54.2834 188.585 54.2721C188.596 54.2608 188.609 54.2518 188.623 54.2457C188.638 54.2395 188.653 54.2364 188.669 54.2363C188.684 54.2363 188.699 54.2394 188.714 54.2455C188.728 54.2515 188.741 54.2605 188.752 54.2717C188.763 54.283 188.772 54.2963 188.778 54.311C188.784 54.3258 188.787 54.3415 188.787 54.3575C188.787 54.3734 188.784 54.3892 188.778 54.404C188.543 54.9081 188.193 55.3465 187.757 55.6821C187.322 56.0178 186.815 56.2407 186.278 56.3321H186.252Z" fill="#263238"/>
    <path d="M188.234 49.0018C188.175 49.0025 188.118 48.9814 188.073 48.9424C187.857 48.7312 187.595 48.5757 187.309 48.4885C187.023 48.4012 186.721 48.3848 186.428 48.4405C186.363 48.4572 186.295 48.4467 186.237 48.4114C186.18 48.3761 186.139 48.3189 186.123 48.2524C186.107 48.1858 186.117 48.1154 186.151 48.0565C186.185 47.9977 186.241 47.9553 186.306 47.9387C186.677 47.8637 187.059 47.8803 187.422 47.9871C187.785 48.0939 188.119 48.2878 188.395 48.5528C188.439 48.5985 188.463 48.6602 188.463 48.7245C188.463 48.7888 188.439 48.8504 188.395 48.8962C188.377 48.9245 188.353 48.9486 188.325 48.9668C188.298 48.985 188.266 48.997 188.234 49.0018V49.0018Z" fill="#263238"/>
    <path d="M180.219 49.9203C180.189 49.9271 180.158 49.9271 180.129 49.9203C180.099 49.908 180.073 49.8899 180.05 49.8669C180.028 49.8438 180.01 49.8165 179.998 49.7863C179.986 49.7562 179.98 49.7239 179.98 49.6913C179.981 49.6588 179.988 49.6266 180 49.5967C180.137 49.2356 180.356 48.9134 180.639 48.6572C180.922 48.401 181.26 48.2182 181.626 48.1242C181.657 48.1175 181.689 48.1175 181.72 48.1239C181.751 48.1304 181.78 48.1433 181.806 48.1619C181.832 48.1805 181.854 48.2043 181.87 48.2318C181.887 48.2594 181.898 48.2902 181.902 48.3223C181.909 48.3536 181.909 48.3859 181.903 48.4173C181.897 48.4486 181.885 48.4785 181.868 48.505C181.851 48.5315 181.828 48.5541 181.802 48.5715C181.776 48.5889 181.747 48.6007 181.716 48.6062C181.427 48.6872 181.161 48.8361 180.938 49.0413C180.714 49.2465 180.541 49.5022 180.431 49.7882C180.41 49.8277 180.379 49.8608 180.342 49.884C180.305 49.9072 180.262 49.9198 180.219 49.9203Z" fill="#263238"/>
    <path d="M240.083 202.926C239.973 202.923 239.865 202.893 239.769 202.838C239.673 202.782 239.591 202.704 239.53 202.609C239.485 202.553 239.454 202.486 239.442 202.414C239.429 202.342 239.436 202.268 239.46 202.2C239.685 201.579 241.459 201.183 241.658 201.137C241.681 201.132 241.705 201.135 241.726 201.145C241.748 201.154 241.767 201.17 241.78 201.189C241.793 201.209 241.801 201.232 241.801 201.256C241.801 201.279 241.793 201.302 241.78 201.322C241.433 201.909 240.752 202.893 240.115 202.926H240.083ZM241.426 201.44C240.726 201.625 239.8 201.955 239.685 202.286C239.673 202.316 239.671 202.349 239.678 202.381C239.685 202.413 239.7 202.441 239.723 202.464C239.763 202.532 239.82 202.588 239.887 202.626C239.955 202.665 240.032 202.684 240.109 202.682C240.45 202.662 240.932 202.206 241.426 201.44Z" fill="#407BFF"/>
    <path d="M241.137 201.44C240.494 201.44 239.691 201.275 239.453 200.919C239.401 200.837 239.376 200.74 239.384 200.643C239.393 200.546 239.433 200.454 239.498 200.384C239.555 200.31 239.626 200.25 239.707 200.206C239.787 200.163 239.876 200.138 239.967 200.133H240.019C240.739 200.133 241.728 201.13 241.767 201.17C241.782 201.184 241.794 201.203 241.799 201.224C241.805 201.245 241.805 201.267 241.799 201.288C241.793 201.309 241.783 201.327 241.768 201.342C241.753 201.357 241.735 201.368 241.716 201.374C241.526 201.421 241.332 201.443 241.137 201.44V201.44ZM240.019 200.377H239.98C239.923 200.379 239.866 200.394 239.815 200.422C239.764 200.449 239.719 200.488 239.685 200.536C239.595 200.661 239.62 200.734 239.653 200.78C239.845 201.084 240.829 201.255 241.433 201.183C241.047 200.779 240.556 200.499 240.019 200.377V200.377Z" fill="#407BFF"/>
    <path d="M204.557 215.863C204.125 215.902 203.692 215.79 203.33 215.546C203.244 215.477 203.176 215.387 203.134 215.284C203.091 215.181 203.074 215.069 203.085 214.958C203.085 214.892 203.101 214.826 203.133 214.769C203.164 214.711 203.21 214.662 203.265 214.628C203.857 214.271 205.926 215.328 206.157 215.447C206.179 215.458 206.197 215.477 206.208 215.499C206.22 215.522 206.224 215.547 206.222 215.572C206.219 215.597 206.208 215.62 206.192 215.639C206.176 215.658 206.155 215.671 206.132 215.678C205.613 215.789 205.086 215.851 204.557 215.863V215.863ZM203.606 214.793C203.53 214.788 203.455 214.804 203.387 214.839C203.366 214.851 203.348 214.869 203.336 214.892C203.325 214.914 203.32 214.939 203.323 214.965C203.317 215.039 203.328 215.114 203.356 215.183C203.384 215.252 203.428 215.313 203.484 215.361C203.805 215.645 204.634 215.691 205.727 215.506C205.063 215.149 204.347 214.908 203.606 214.793V214.793Z" fill="#407BFF"/>
    <path d="M206.104 215.663H206.059C205.417 215.38 204.176 214.257 204.266 213.682C204.266 213.55 204.382 213.379 204.703 213.346H204.8C205.918 213.346 206.207 215.446 206.22 215.538C206.223 215.56 206.22 215.583 206.212 215.603C206.205 215.624 206.192 215.643 206.175 215.657C206.153 215.666 206.128 215.668 206.104 215.663ZM204.819 213.577H204.748C204.543 213.577 204.53 213.676 204.53 213.702C204.478 214.052 205.327 214.931 205.969 215.32C205.841 214.805 205.513 213.59 204.793 213.59L204.819 213.577Z" fill="#407BFF"/>
    <path d="M186.708 50.11L185.699 50.0176C185.699 50.0176 186.335 50.6911 186.708 50.11Z" fill="#263238"/>
    <path d="M191.124 74.0475C180.372 76.5106 183.694 69.828 184.337 68.3554L184.607 68.2498C185.892 67.7677 186.149 67.6951 187.859 67.18C190.842 66.3526 193.879 65.7458 196.946 65.3641L197.589 65.2717C198.232 65.1858 198.816 65.1198 199.408 65.067C199.806 65.0207 200.205 64.9943 200.584 64.9679L201.869 64.8887C202.088 65.9188 202.621 71.426 191.124 74.0475Z" fill="#E58A7B"/>
    <path d="M208.001 94.9606L209.254 96.6246C209.351 96.7501 209.216 96.9284 208.984 96.9746L187.995 101.174C187.815 101.214 187.648 101.174 187.615 101.036L187.082 99.2329C187.082 99.1075 187.185 98.9688 187.378 98.9292L207.648 94.8747C207.709 94.8562 207.774 94.8544 207.835 94.8695C207.897 94.8845 207.955 94.9159 208.001 94.9606V94.9606Z" fill="#26395A"/>
    <path d="M205.721 97.8326L206.267 97.727C206.376 97.727 206.447 97.6345 206.428 97.5619L205.721 95.2243C205.721 95.1517 205.592 95.1187 205.483 95.1385L204.943 95.2441C204.834 95.2441 204.763 95.3432 204.782 95.4092L205.489 97.7534C205.509 97.8194 205.618 97.8591 205.721 97.8326Z" fill="#407BFF"/>
    <path d="M193.426 105.625L189.242 104.027L189.885 108.115C189.885 108.115 192.918 109.237 194.467 107.798L193.426 105.625Z" fill="#E58A7B"/>
    <path d="M185.258 105.11L184.262 107.791L189.885 108.115L189.242 104.027L185.258 105.11Z" fill="#E58A7B"/>
    <path d="M189.557 101.069L190.103 100.963C190.206 100.963 190.283 100.871 190.257 100.798L189.55 98.4606C189.55 98.388 189.428 98.355 189.319 98.3748L188.773 98.4804C188.664 98.4804 188.593 98.5795 188.619 98.6455L189.326 100.99C189.345 101.056 189.448 101.095 189.557 101.069Z" fill="#407BFF"/>
    <path d="M197.641 99.444L198.181 99.3383C198.29 99.3383 198.361 99.2459 198.342 99.1732L197.635 96.8356C197.635 96.763 197.506 96.73 197.397 96.7498L196.857 96.8555C196.748 96.8555 196.677 96.9545 196.697 97.0205L197.403 99.3647C197.429 99.4029 197.466 99.4314 197.509 99.4457C197.552 99.4601 197.599 99.4594 197.641 99.444Z" fill="#407BFF"/>
    <path d="M195.354 62.7439C195.811 62.5656 196.383 64.2165 196.241 64.4278C195.913 64.9098 189.911 66.5937 189.641 65.6494C189.624 65.1375 189.7 64.6269 189.866 64.1438C190.039 63.8269 191.37 64.408 195.354 62.7439Z" fill="#407BFF"/>
    <path d="M194.339 62.7829C194.57 62.2348 195.232 61.3566 195.811 61.8584C196.389 62.3603 196.633 63.4432 196.254 63.6215C195.875 63.7998 193.94 63.7007 194.339 62.7829Z" fill="#407BFF"/>
    <path d="M195.566 63.0659C195.964 62.63 196.851 62.0291 197.256 62.7027C197.661 63.3762 197.513 64.479 197.102 64.512C196.691 64.545 194.891 63.7856 195.566 63.0659Z" fill="#407BFF"/>
    <path d="M195.785 62.9685C195.753 62.6174 195.82 62.2642 195.979 61.9514C196.137 61.6386 196.38 61.3796 196.679 61.2054C197.411 60.7168 198.125 60.3998 198.407 59.8848C198.529 60.3677 198.553 60.8711 198.478 61.3639C198.33 62.0705 196.049 62.6119 196.203 63.2261L195.785 62.9685Z" fill="#407BFF"/>
    <path d="M195.687 62.9338C195.475 62.6567 195.344 62.3222 195.312 61.9707C195.28 61.6192 195.348 61.2657 195.508 60.9528C195.855 60.134 196.292 59.4737 196.266 58.8926C196.623 59.2304 196.909 59.6393 197.108 60.0944C197.352 60.7547 195.726 62.4914 196.182 62.9272L195.687 62.9338Z" fill="#407BFF"/>
    <path d="M240.387 191.931C240.374 191.93 240.361 191.926 240.35 191.919C240.339 191.912 240.329 191.903 240.323 191.891C240.175 191.68 225.483 170.14 220.098 151.214C216.583 139.075 213.882 126.702 212.013 114.183C210.901 107.13 210.226 102.871 208.015 99.378C208.001 99.362 207.992 99.3408 207.992 99.3186C207.992 99.2965 208.001 99.2752 208.015 99.2592C208.031 99.2457 208.05 99.2383 208.07 99.2383C208.09 99.2383 208.11 99.2457 208.125 99.2592C210.361 102.785 211.036 107.058 212.148 114.13C214.025 126.631 216.731 138.986 220.246 151.109C225.625 170.008 240.303 191.521 240.451 191.739C240.463 191.755 240.47 191.775 240.47 191.795C240.47 191.816 240.463 191.835 240.451 191.851C240.45 191.87 240.444 191.888 240.432 191.902C240.42 191.916 240.405 191.926 240.387 191.931V191.931Z" fill="#407BFF"/>
    <path opacity="0.4" d="M240.387 191.931C240.374 191.93 240.361 191.926 240.35 191.919C240.339 191.912 240.329 191.903 240.323 191.891C240.175 191.68 225.483 170.14 220.098 151.214C216.583 139.075 213.882 126.702 212.013 114.183C210.901 107.13 210.226 102.871 208.015 99.378C208.001 99.362 207.992 99.3408 207.992 99.3186C207.992 99.2965 208.001 99.2752 208.015 99.2592C208.031 99.2457 208.05 99.2383 208.07 99.2383C208.09 99.2383 208.11 99.2457 208.125 99.2592C210.361 102.785 211.036 107.058 212.148 114.13C214.025 126.631 216.731 138.986 220.246 151.109C225.625 170.008 240.303 191.521 240.451 191.739C240.463 191.755 240.47 191.775 240.47 191.795C240.47 191.816 240.463 191.835 240.451 191.851C240.45 191.87 240.444 191.888 240.432 191.902C240.42 191.916 240.405 191.926 240.387 191.931V191.931Z" fill="black"/>
    <path d="M213.232 207.825L203.412 209.132L202.77 206.319L212.995 204.094L213.232 207.825Z" fill="#407BFF"/>
    <path d="M243.336 191.62L236.093 195.919L233.65 193.773L241.575 188.266L243.336 191.62Z" fill="#407BFF"/>
    <path d="M209.344 71.7969C209.691 73.6326 209.891 75.3627 210.083 77.1522C210.276 78.9417 210.347 80.7114 210.398 82.5009C210.449 84.3045 210.411 86.1095 210.283 87.9091C210.212 88.8137 210.135 89.7184 210.013 90.6296C209.961 91.0787 209.903 91.5343 209.82 91.9899L209.582 93.3898C209.319 94.5309 208.836 95.6063 208.162 96.5528C207.609 97.3492 206.999 98.1019 206.337 98.8046C205.096 100.114 203.765 101.327 202.352 102.436C199.619 104.598 196.727 106.539 193.702 108.241L192.326 106.048C193.612 104.999 194.897 103.916 196.182 102.813C197.468 101.71 198.689 100.594 199.865 99.4319C201.027 98.3133 202.124 97.1248 203.149 95.8727C203.62 95.2933 204.049 94.6798 204.434 94.037C204.738 93.5686 204.956 93.0472 205.077 92.4984C205.286 90.8954 205.408 89.2817 205.443 87.6647C205.443 86.8393 205.443 86.0139 205.443 85.1885C205.443 84.3631 205.411 83.5244 205.373 82.6924C205.295 81.0284 205.148 79.3907 204.974 77.7003C204.801 76.0098 204.576 74.3392 204.331 72.7742L209.344 71.7969Z" fill="#E58A7B"/>
    <path d="M208.568 66.1836C211.312 68.4684 210.657 75.2566 210.657 75.2566L201.402 78.3866C201.402 78.3866 201.827 70.5616 202.289 67.7486C202.829 64.4007 205.863 63.9319 208.568 66.1836Z" fill="#407BFF"/>
    <path opacity="0.2" d="M208.568 66.1836C211.312 68.4684 210.657 75.2566 210.657 75.2566L201.402 78.3866C201.402 78.3866 201.827 70.5616 202.289 67.7486C202.829 64.4007 205.863 63.9319 208.568 66.1836Z" fill="black"/>
    <path d="M86.3105 94.5116C85.9514 92.9105 85.0746 91.4818 83.8233 90.4587C82.572 89.4357 81.0201 88.8788 79.421 88.8789H28.0069C26.132 88.8789 24.3339 89.6442 23.0081 91.0064C21.6823 92.3686 20.9375 94.2161 20.9375 96.1426V213.563C20.9375 215.49 21.6823 217.337 23.0081 218.7C24.3339 220.062 26.132 220.827 28.0069 220.827H191.247C193.122 220.827 194.92 220.062 196.245 218.7C197.571 217.337 198.316 215.49 198.316 213.563V114.929C198.316 113.003 197.571 111.155 196.245 109.793C194.92 108.431 193.122 107.665 191.247 107.665H102.397C98.6625 107.666 95.0385 106.366 92.1167 103.976C89.1949 101.587 87.1481 98.2506 86.3105 94.5116V94.5116Z" fill="#407BFF"/>
    <path opacity="0.6" d="M86.3105 94.5116C85.9514 92.9105 85.0746 91.4818 83.8233 90.4587C82.572 89.4357 81.0201 88.8788 79.421 88.8789H28.0069C26.132 88.8789 24.3339 89.6442 23.0081 91.0064C21.6823 92.3686 20.9375 94.2161 20.9375 96.1426V213.563C20.9375 215.49 21.6823 217.337 23.0081 218.7C24.3339 220.062 26.132 220.827 28.0069 220.827H191.247C193.122 220.827 194.92 220.062 196.245 218.7C197.571 217.337 198.316 215.49 198.316 213.563V114.929C198.316 113.003 197.571 111.155 196.245 109.793C194.92 108.431 193.122 107.665 191.247 107.665H102.397C98.6625 107.666 95.0385 106.366 92.1167 103.976C89.1949 101.587 87.1481 98.2506 86.3105 94.5116V94.5116Z" fill="black"/>
    <path opacity="0.22" d="M68.1621 57.9414L72.7444 73.1886C73.3293 75.1291 74.64 76.7517 76.3884 77.7001C78.1369 78.6485 80.1802 78.8451 82.0696 78.2467L96.9026 73.5385L68.1621 57.9414Z" fill="#407BFF"/>
    <path d="M68.1628 57.9414L15.1421 74.7734C14.2061 75.0688 13.336 75.551 12.5815 76.1922C11.8271 76.8335 11.2031 77.6214 10.7453 78.5107C10.2874 79.4 10.0047 80.3733 9.91337 81.375C9.82199 82.3766 9.92372 83.387 10.2127 84.3482L40.4828 185.036C40.7717 185.998 41.2421 186.891 41.8671 187.665C42.4922 188.44 43.2596 189.08 44.1256 189.55C44.9915 190.02 45.9391 190.31 46.9141 190.403C47.8891 190.496 48.8725 190.392 49.808 190.094L117.668 168.554C118.604 168.258 119.473 167.775 120.227 167.134C120.98 166.492 121.604 165.704 122.061 164.815C122.518 163.926 122.8 162.953 122.891 161.951C122.982 160.95 122.88 159.94 122.591 158.979L96.884 73.5385L68.1628 57.9414Z" fill="#407BFF"/>
    <path opacity="0.8" d="M68.1628 57.9414L15.1421 74.7734C14.2061 75.0688 13.336 75.551 12.5815 76.1922C11.8271 76.8335 11.2031 77.6214 10.7453 78.5107C10.2874 79.4 10.0047 80.3733 9.91337 81.375C9.82199 82.3766 9.92372 83.387 10.2127 84.3482L40.4828 185.036C40.7717 185.998 41.2421 186.891 41.8671 187.665C42.4922 188.44 43.2596 189.08 44.1256 189.55C44.9915 190.02 45.9391 190.31 46.9141 190.403C47.8891 190.496 48.8725 190.392 49.808 190.094L117.668 168.554C118.604 168.258 119.473 167.775 120.227 167.134C120.98 166.492 121.604 165.704 122.061 164.815C122.518 163.926 122.8 162.953 122.891 161.951C122.982 160.95 122.88 159.94 122.591 158.979L96.884 73.5385L68.1628 57.9414Z" fill="white"/>
    <g opacity="0.28">
    <path opacity="0.28" d="M96.6927 164.157L52.5794 178.156C51.7544 178.416 50.8627 178.33 50.0991 177.917C49.3356 177.504 48.7624 176.796 48.5048 175.95V175.95C48.2537 175.102 48.3391 174.187 48.7425 173.404C49.1458 172.621 49.8344 172.034 50.6578 171.77L94.7711 157.764C95.5969 157.504 96.4894 157.591 97.253 158.006C98.0167 158.42 98.5894 159.129 98.8456 159.977V159.977C99.0968 160.824 99.0113 161.74 98.608 162.523C98.2046 163.306 97.516 163.893 96.6927 164.157V164.157Z" fill="#407BFF"/>
    </g>
    <g opacity="0.28">
    <path opacity="0.28" d="M49.2173 81.9986L25.8882 89.4009C25.0632 89.6595 24.1722 89.5728 23.4092 89.1597C22.6461 88.7467 22.0726 88.0407 21.8136 87.1954V87.1954C21.5623 86.3469 21.6475 85.4307 22.0508 84.6465C22.4541 83.8623 23.1427 83.2737 23.9666 83.0089L47.2957 75.6065C48.1207 75.3444 49.0132 75.4294 49.7772 75.8429C50.5412 76.2565 51.1142 76.9647 51.3703 77.8121V77.8121C51.6216 78.6606 51.5364 79.5768 51.1331 80.361C50.7298 81.1452 50.0412 81.7338 49.2173 81.9986V81.9986Z" fill="#407BFF"/>
    </g>
    <g opacity="0.28">
    <path opacity="0.28" d="M68.2517 89.8504L29.6912 102.086C28.8679 102.341 27.9804 102.251 27.2211 101.837C26.4619 101.422 25.8923 100.717 25.6359 99.8743C25.3827 99.0276 25.4664 98.1122 25.8688 97.3288C26.2711 96.5453 26.9592 95.9576 27.7824 95.6944L66.343 83.4584C67.1679 83.198 68.0597 83.2839 68.8232 83.6972C69.5868 84.1105 70.16 84.8176 70.4175 85.6639V85.6639C70.6666 86.5142 70.5787 87.4311 70.1731 88.2151C69.7675 88.9992 69.077 89.5869 68.2517 89.8504Z" fill="#407BFF"/>
    </g>
    <g opacity="0.28">
    <path opacity="0.28" d="M89.782 96.9091L33.5093 114.738C32.6852 114.998 31.7943 114.912 31.0318 114.499C30.2693 114.086 29.6973 113.379 29.4411 112.533C29.1895 111.685 29.2739 110.77 29.6759 109.986C30.0779 109.201 30.765 108.612 31.5877 108.346L87.8604 90.5171C88.6845 90.2588 89.5746 90.3456 90.3366 90.7588C91.0987 91.1719 91.6709 91.8778 91.9285 92.7226V92.7226C92.1819 93.5703 92.0983 94.4865 91.6961 95.271C91.2938 96.0555 90.6056 96.6445 89.782 96.9091V96.9091Z" fill="#407BFF"/>
    </g>
    <g opacity="0.28">
    <path opacity="0.28" d="M93.5943 109.587L60.8821 119.974C60.0571 120.232 59.1663 120.144 58.4041 119.73C57.6419 119.315 57.0703 118.608 56.814 117.762C56.5625 116.915 56.6471 116 57.0492 115.218C57.4513 114.435 58.1383 113.847 58.9605 113.582L91.6727 103.195C92.4985 102.938 93.3895 103.027 94.1522 103.441C94.915 103.855 95.4881 104.561 95.7473 105.407V105.407C95.9984 106.255 95.913 107.17 95.5096 107.953C95.1063 108.736 94.4177 109.324 93.5943 109.587V109.587Z" fill="#407BFF"/>
    </g>
    <g opacity="0.28">
    <path opacity="0.28" d="M45.8813 124.736L37.3273 127.45C36.5023 127.71 35.6106 127.624 34.847 127.211C34.0835 126.797 33.5103 126.09 33.2527 125.244V125.244C32.9996 124.395 33.084 123.478 33.4876 122.694C33.8911 121.909 34.5808 121.321 35.4057 121.057L43.9597 118.343C44.7847 118.085 45.6756 118.172 46.4387 118.585C47.2018 118.998 47.7752 119.704 48.0343 120.549V120.549C48.2839 121.398 48.1978 122.313 47.7947 123.097C47.3917 123.88 46.7042 124.469 45.8813 124.736V124.736Z" fill="#407BFF"/>
    </g>
    <g opacity="0.28">
    <path opacity="0.28" d="M97.4103 122.272L41.1376 140.134C40.3126 140.393 39.4218 140.305 38.6596 139.89C37.8974 139.476 37.3258 138.768 37.0695 137.922V137.922C36.8163 137.076 36.9 136.16 37.3023 135.377C37.7047 134.593 38.3928 134.006 39.216 133.742L95.4887 115.88C96.3128 115.622 97.2029 115.709 97.965 116.122C98.727 116.535 99.2992 117.241 99.5568 118.086V118.086C99.8102 118.934 99.7267 119.85 99.3244 120.634C98.9222 121.419 98.234 122.008 97.4103 122.272V122.272Z" fill="#407BFF"/>
    </g>
    <g opacity="0.28">
    <path opacity="0.28" d="M79.5054 141.844L44.9487 152.813C44.1246 153.071 43.2345 152.984 42.4725 152.571C41.7104 152.158 41.1382 151.452 40.8806 150.607V150.607C40.629 149.759 40.7133 148.844 41.1153 148.06C41.5173 147.276 42.2044 146.687 43.0271 146.42L77.5838 135.452C78.4096 135.194 79.3013 135.282 80.0646 135.696C80.8278 136.11 81.4007 136.818 81.6584 137.664V137.664C81.9113 138.512 81.8267 139.428 81.4231 140.212C81.0194 140.995 80.3298 141.582 79.5054 141.844Z" fill="#407BFF"/>
    </g>
    <g opacity="0.28">
    <path opacity="0.28" d="M101.222 134.958L91.9993 137.883C91.1735 138.141 90.2818 138.054 89.5186 137.639C88.7553 137.225 88.1824 136.517 87.9247 135.671V135.671C87.6736 134.823 87.759 133.908 88.1624 133.125C88.5658 132.342 89.2543 131.754 90.0777 131.491L99.3001 128.566C100.124 128.305 101.015 128.391 101.778 128.805C102.54 129.218 103.112 129.925 103.368 130.771V130.771C103.622 131.619 103.538 132.535 103.136 133.32C102.734 134.104 102.045 134.693 101.222 134.958V134.958Z" fill="#407BFF"/>
    </g>
    <g opacity="0.28">
    <path opacity="0.28" d="M105.032 147.649L48.7724 165.478C47.9466 165.738 47.0541 165.652 46.2904 165.237C45.5267 164.822 44.954 164.114 44.6978 163.266V163.266C44.4449 162.418 44.5295 161.502 44.9331 160.719C45.3367 159.935 46.0264 159.348 46.8508 159.086L103.117 141.224C103.943 140.968 104.834 141.056 105.597 141.47C106.359 141.884 106.932 142.591 107.192 143.436V143.436C107.321 143.858 107.367 144.303 107.328 144.744C107.29 145.184 107.166 145.613 106.966 146.005C106.765 146.396 106.491 146.743 106.159 147.025C105.827 147.308 105.444 147.52 105.032 147.649V147.649Z" fill="#407BFF"/>
    </g>
    <path d="M106.241 20.0792L123.067 58.6032C123.503 59.6088 123.535 60.7512 123.155 61.7807C122.774 62.8102 122.012 63.643 121.036 64.0972L49.6602 97.0149C48.6817 97.4655 47.5692 97.4989 46.5668 97.1077C45.5643 96.7165 44.7538 95.9327 44.3132 94.9282L27.4815 56.4043C27.0409 55.3981 27.0074 54.2534 27.3882 53.2218C27.7691 52.1903 28.5332 51.3564 29.5124 50.9037L100.888 17.986C101.868 17.5373 102.982 17.5057 103.985 17.8979C104.988 18.2901 105.799 19.0743 106.241 20.0792V20.0792Z" fill="#407BFF"/>
    <path opacity="0.3" d="M106.241 20.0792L123.067 58.6032C123.503 59.6088 123.535 60.7512 123.155 61.7807C122.774 62.8102 122.012 63.643 121.036 64.0972L49.6602 97.0149C48.6817 97.4655 47.5692 97.4989 46.5668 97.1077C45.5643 96.7165 44.7538 95.9327 44.3132 94.9282L27.4815 56.4043C27.0409 55.3981 27.0074 54.2534 27.3882 53.2218C27.7691 52.1903 28.5332 51.3564 29.5124 50.9037L100.888 17.986C101.868 17.5373 102.982 17.5057 103.985 17.8979C104.988 18.2901 105.799 19.0743 106.241 20.0792V20.0792Z" fill="black"/>
    <path d="M94.9939 18.1752L92.7129 19.2266L92.9759 19.8291L95.257 18.7777L94.9939 18.1752Z" fill="#407BFF"/>
    <path d="M89.5171 20.6963L82.4043 23.9746L82.6673 24.5771L89.7801 21.2988L89.5171 20.6963Z" fill="#407BFF"/>
    <path d="M27.4183 60.2862L26.832 60.5566L28.78 65.0144L29.3663 64.7439L27.4183 60.2862Z" fill="#407BFF"/>
    <path opacity="0.6" d="M103.851 17.8468L85.4449 54.8916C83.7369 58.3252 80.9399 61.0572 77.516 62.6361C74.0921 64.2149 70.2464 64.5462 66.6144 63.575L27.4434 53.0823C27.8452 52.1166 28.5831 51.3396 29.5128 50.9032L100.888 17.9855C101.823 17.5559 102.882 17.5063 103.851 17.8468Z" fill="#407BFF"/>
    <path d="M129.152 65.2598L73.7666 68.7728C72.7882 68.8325 71.8307 69.0899 70.9492 69.5303C70.0677 69.9707 69.2793 70.5854 68.6292 71.3392C67.9792 72.093 67.4801 72.9711 67.1608 73.9233C66.8414 74.8755 66.7079 75.883 66.7679 76.8883L73.0854 182.066C73.1443 183.072 73.3959 184.057 73.8257 184.963C74.2554 185.868 74.855 186.678 75.5899 187.346C76.3248 188.013 77.1807 188.525 78.1086 188.852C79.0364 189.179 80.0178 189.314 80.9967 189.251L151.884 184.754C152.861 184.694 153.817 184.435 154.698 183.994C155.578 183.554 156.364 182.939 157.013 182.185C157.661 181.431 158.158 180.553 158.476 179.601C158.794 178.649 158.925 177.643 158.863 176.639L153.529 87.381L129.152 65.2598Z" fill="#407BFF"/>
    <path opacity="0.8" d="M129.152 65.2598L73.7666 68.7728C72.7882 68.8325 71.8307 69.0899 70.9492 69.5303C70.0677 69.9707 69.2793 70.5854 68.6292 71.3392C67.9792 72.093 67.4801 72.9711 67.1608 73.9233C66.8414 74.8755 66.7079 75.883 66.7679 76.8883L73.0854 182.066C73.1443 183.072 73.3959 184.057 73.8257 184.963C74.2554 185.868 74.855 186.678 75.5899 187.346C76.3248 188.013 77.1807 188.525 78.1086 188.852C79.0364 189.179 80.0178 189.314 80.9967 189.251L151.884 184.754C152.861 184.694 153.817 184.435 154.698 183.994C155.578 183.554 156.364 182.939 157.013 182.185C157.661 181.431 158.158 180.553 158.476 179.601C158.794 178.649 158.925 177.643 158.863 176.639L153.529 87.381L129.152 65.2598Z" fill="white"/>
    <g opacity="0.22">
    <path opacity="0.22" d="M132.501 175.383L86.415 178.308C85.554 178.359 84.7085 178.058 84.0631 177.47C83.4177 176.882 83.0248 176.056 82.9702 175.172V175.172C82.9209 174.288 83.2132 173.419 83.7836 172.755C84.354 172.091 85.1565 171.685 86.0165 171.626L132.103 168.707C132.964 168.655 133.81 168.954 134.457 169.541C135.103 170.127 135.498 170.953 135.554 171.837V171.837C135.605 172.723 135.312 173.593 134.74 174.258C134.168 174.922 133.363 175.327 132.501 175.383V175.383Z" fill="#407BFF"/>
    </g>
    <g opacity="0.22">
    <path opacity="0.22" d="M105.226 84.0447L80.8491 85.5767C79.9885 85.6274 79.1433 85.327 78.497 84.7409C77.8508 84.1548 77.4558 83.3303 77.3979 82.4467V82.4467C77.3486 81.5614 77.6418 80.6919 78.2136 80.0278C78.7854 79.3636 79.5894 78.9585 80.4506 78.9007L104.827 77.3555C105.688 77.3031 106.533 77.603 107.179 78.1896C107.824 78.7762 108.217 79.6017 108.272 80.4855C108.327 81.3723 108.037 82.2452 107.465 82.9125C106.894 83.5798 106.089 83.987 105.226 84.0447V84.0447Z" fill="#407BFF"/>
    </g>
    <g opacity="0.22">
    <path opacity="0.22" d="M121.923 96.2877L81.6463 98.8366C80.7849 98.8909 79.9378 98.5918 79.2908 98.005C78.6437 97.4182 78.2497 96.5916 78.1952 95.7066V95.7066C78.1441 94.8209 78.4367 93.9505 79.0088 93.2859C79.581 92.6213 80.3861 92.2167 81.2479 92.1606L121.518 89.6117C122.379 89.5575 123.227 89.8566 123.874 90.4434C124.521 91.0302 124.915 91.8568 124.969 92.7417V92.7417C125.02 93.6264 124.728 94.4958 124.158 95.1602C123.587 95.8246 122.783 96.23 121.923 96.2877V96.2877Z" fill="#407BFF"/>
    </g>
    <g opacity="0.22">
    <path opacity="0.22" d="M141.222 108.366L82.4424 112.09C81.5786 112.144 80.7291 111.845 80.0799 111.257C79.4306 110.669 79.0346 109.841 78.9784 108.954V108.954C78.9274 108.07 79.2192 107.201 79.7902 106.537C80.3611 105.874 81.1646 105.47 82.0247 105.414L140.81 101.683C141.671 101.633 142.517 101.934 143.162 102.522C143.807 103.109 144.2 103.936 144.255 104.82V104.82C144.306 105.702 144.016 106.57 143.448 107.234C142.88 107.898 142.08 108.305 141.222 108.366V108.366Z" fill="#407BFF"/>
    </g>
    <g opacity="0.22">
    <path opacity="0.22" d="M142.019 121.612L107.848 123.778C106.987 123.83 106.141 123.531 105.494 122.944C104.847 122.358 104.453 121.532 104.397 120.648C104.344 119.763 104.635 118.892 105.206 118.228C105.777 117.563 106.582 117.158 107.443 117.102L141.614 114.936C142.475 114.882 143.323 115.181 143.97 115.768C144.617 116.354 145.011 117.181 145.065 118.066C145.116 118.951 144.825 119.82 144.254 120.484C143.683 121.149 142.88 121.554 142.019 121.612Z" fill="#407BFF"/>
    </g>
    <g opacity="0.22">
    <path opacity="0.22" d="M92.1733 124.767L83.2337 125.335C82.3734 125.388 81.5279 125.088 80.8822 124.501C80.2366 123.915 79.8435 123.089 79.7889 122.205V122.205C79.7379 121.321 80.0296 120.451 80.6003 119.787C81.1711 119.122 81.9746 118.717 82.8352 118.659L91.7748 118.091C92.6365 118.041 93.4826 118.342 94.1291 118.93C94.7755 119.517 95.1698 120.343 95.226 121.228C95.2753 122.113 94.9819 122.981 94.41 123.644C93.838 124.308 93.0339 124.711 92.1733 124.767V124.767Z" fill="#407BFF"/>
    </g>
    <g opacity="0.22">
    <path opacity="0.22" d="M142.814 134.858L84.0288 138.582C83.1678 138.634 82.3216 138.335 81.675 137.748C81.0283 137.162 80.6338 136.336 80.5776 135.452C80.5283 134.567 80.8215 133.697 81.3933 133.033C81.9651 132.369 82.7691 131.964 83.6303 131.906L142.409 128.182C143.271 128.129 144.119 128.43 144.765 129.018C145.412 129.606 145.806 130.433 145.861 131.318C145.912 132.202 145.62 133.071 145.049 133.734C144.478 134.398 143.674 134.802 142.814 134.858V134.858Z" fill="#407BFF"/>
    </g>
    <g opacity="0.22">
    <path opacity="0.22" d="M120.927 149.545L84.8276 151.836C83.966 151.887 83.1198 151.586 82.4734 150.998C81.8269 150.411 81.4327 149.584 81.3764 148.7V148.7C81.3272 147.815 81.6205 146.946 82.1925 146.283C82.7644 145.62 83.5685 145.216 84.4291 145.16L120.528 142.869C121.389 142.818 122.235 143.12 122.88 143.707C123.525 144.295 123.918 145.121 123.973 146.005V146.005C124.026 146.89 123.734 147.759 123.163 148.423C122.592 149.087 121.787 149.49 120.927 149.545V149.545Z" fill="#407BFF"/>
    </g>
    <g opacity="0.22">
    <path opacity="0.22" d="M143.607 148.112L133.966 148.719C133.106 148.772 132.261 148.472 131.615 147.885C130.969 147.299 130.576 146.473 130.522 145.589V145.589C130.469 144.704 130.76 143.834 131.331 143.169C131.902 142.504 132.707 142.1 133.568 142.043L143.208 141.436C144.07 141.382 144.917 141.681 145.564 142.268C146.211 142.854 146.605 143.681 146.659 144.566C146.709 145.451 146.415 146.321 145.844 146.985C145.272 147.649 144.468 148.054 143.607 148.112Z" fill="#407BFF"/>
    </g>
    <g opacity="0.22">
    <path opacity="0.22" d="M144.404 161.358L85.6249 165.082C84.7639 165.134 83.9177 164.835 83.271 164.248C82.6244 163.662 82.2299 162.836 82.1737 161.952V161.952C82.1226 161.067 82.4143 160.198 82.9851 159.533C83.5559 158.869 84.3593 158.464 85.22 158.406L144.006 154.682C144.866 154.629 145.711 154.929 146.357 155.516C147.003 156.102 147.396 156.928 147.45 157.812C147.503 158.697 147.212 159.567 146.641 160.232C146.07 160.897 145.265 161.302 144.404 161.358Z" fill="#407BFF"/>
    </g>
    <path opacity="0.22" d="M129.152 65.2598L130.11 81.1871C130.17 82.1913 130.421 83.1736 130.851 84.0778C131.28 84.9821 131.879 85.7906 132.612 86.4571C133.346 87.1237 134.2 87.6352 135.126 87.9626C136.051 88.2899 137.031 88.4266 138.008 88.3649L153.529 87.381L129.152 65.2598Z" fill="#407BFF"/>
    <path opacity="0.5" d="M111.015 104.991C111.006 104.228 110.847 103.474 110.549 102.775C110.251 102.076 109.82 101.445 109.281 100.92C108.741 100.395 108.105 99.9859 107.41 99.7177C106.714 99.4495 105.973 99.3273 105.231 99.3582H53.7528C49.8518 99.3582 46.0407 102.614 45.308 106.622L24.9931 213.563C24.2347 217.571 26.7797 220.827 30.6807 220.827H193.92C197.821 220.827 201.6 217.578 202.365 213.563L219.12 125.408C219.878 121.394 217.333 118.145 213.432 118.145H124.608C116.896 118.145 111.279 112.69 111.015 104.991Z" fill="#407BFF"/>
    </svg>
