<svg width="26" height="25" viewBox="0 0 26 25" fill="none" xmlns="http://www.w3.org/2000/svg">
<rect x="0.984375" y="0.5" width="24" height="24" rx="9.5" stroke="#E0E0E0"/>
<g clip-path="url(#clip0)">
<path d="M11.7443 17.1434C12.9746 17.1432 14.1694 16.7187 15.1386 15.9377L18.1856 19.0777L19.1657 18.0677L16.1187 14.9277C16.8769 13.9289 17.2891 12.6973 17.2894 11.4291C17.2894 8.27842 14.8017 5.71484 11.7443 5.71484C8.68687 5.71484 6.19922 8.27842 6.19922 11.4291C6.19922 14.5798 8.68687 17.1434 11.7443 17.1434ZM11.7443 7.14342C14.0379 7.14342 15.9031 9.06556 15.9031 11.4291C15.9031 13.7927 14.0379 15.7148 11.7443 15.7148C9.45071 15.7148 7.58549 13.7927 7.58549 11.4291C7.58549 9.06556 9.45071 7.14342 11.7443 7.14342Z" fill="#E0E0E0"/>
</g>
<defs>
<clipPath id="clip0">
<rect width="13.5714" height="13.5714" fill="white" transform="translate(6.19922 5.71484)"/>
</clipPath>
</defs>
</svg>
