<svg width="11" height="11" viewBox="0 0 11 11" fill="none" xmlns="http://www.w3.org/2000/svg">
<path d="M4.22251 2.43345H5.18765V7.15303C5.18765 7.21442 5.23467 7.26464 5.29213 7.26464H6.07574C6.1332 7.26464 6.18022 7.21442 6.18022 7.15303V2.43345H7.14797C7.23547 2.43345 7.28379 2.32602 7.23024 2.25348L5.76752 0.275244C5.75775 0.261904 5.74526 0.251116 5.731 0.243697C5.71675 0.236278 5.7011 0.232422 5.68524 0.232422C5.66938 0.232422 5.65373 0.236278 5.63948 0.243697C5.62522 0.251116 5.61274 0.261904 5.60296 0.275244L4.14024 2.25209C4.08669 2.32603 4.13501 2.43345 4.22251 2.43345ZM10.4652 6.73451H9.68162C9.62415 6.73451 9.57714 6.78473 9.57714 6.84611V8.99455H1.79335V6.84611C1.79335 6.78473 1.74633 6.73451 1.68886 6.73451H0.905262C0.847797 6.73451 0.800781 6.78473 0.800781 6.84611V9.60839C0.800781 9.85532 0.98754 10.0548 1.2187 10.0548H10.1518C10.3829 10.0548 10.5697 9.85532 10.5697 9.60839V6.84611C10.5697 6.78473 10.5227 6.73451 10.4652 6.73451Z" fill="#407BFF"/>
</svg>
