<svg width="641" height="641" viewBox="0 0 641 641" fill="none" xmlns="http://www.w3.org/2000/svg">
<path fill-rule="evenodd" clip-rule="evenodd" d="M281.484 0.833834C349.113 8.13072 386.321 69.4962 433.197 111.948C470.651 145.868 497.254 183.39 526.552 222.776C568.341 278.955 641.67 324.66 640.995 391.3C640.266 463.34 588.719 531.415 522.975 576.237C455.705 622.099 365.162 653.153 281.484 636.402C201.953 620.481 158.893 549.691 110.007 493.566C74.7322 453.067 57.9277 406.562 39.4699 358.549C20.9114 310.274 -8.33582 263.267 2.24453 213.251C13.6654 159.262 51.4018 112.321 99.258 75.9172C150.941 36.6017 212.949 -6.5609 281.484 0.833834Z" fill="#2C5DF2"/>
</svg>
