<!-- <svg width="758" height="687" viewBox="0 0 758 687" fill="none" xmlns="http://www.w3.org/2000/svg">
    <path fill-rule="evenodd" clip-rule="evenodd" d="M392.446 1.26106C453.897 -6.01143 512.221 19.3373 568.052 47.3314C636.006 81.4038 719.956 106.715 748.778 179.927C777.896 253.895 730.471 333.442 711.175 410.892C690.404 494.261 696.746 596.297 631.93 648.934C566.912 701.735 472.175 690.399 392.446 669.733C324.309 652.072 282.753 586.528 225.626 543.619C167.768 500.161 92.1499 481.367 55.9338 416.977C15.1282 344.426 -23.5049 245.988 17.4831 173.552C59.5938 99.132 167.951 120.405 243.354 85.7582C296.38 61.3935 334.954 8.06505 392.446 1.26106Z" fill="#2C5DF2" />
</svg> -->
<svg width="1366" height="1462" viewBox="0 0 1366 1462" fill="none" xmlns="http://www.w3.org/2000/svg">
    <path fill-rule="evenodd" clip-rule="evenodd" d="M1054.48 -517.166C1122.11 -509.869 1159.32 -448.504 1206.2 -406.052C1243.65 -372.132 1270.25 -334.61 1299.55 -295.224C1341.34 -239.045 1414.67 -193.34 1414 -126.7C1413.27 -54.6597 1361.72 13.4152 1295.97 58.2371C1228.7 104.099 1138.16 135.153 1054.48 118.402C974.953 102.481 931.893 31.6907 883.007 -24.4337C847.732 -64.9326 830.928 -111.438 812.47 -159.451C793.911 -207.726 764.664 -254.733 775.245 -304.749C786.665 -358.738 824.402 -405.679 872.258 -442.083C923.941 -481.398 985.949 -524.561 1054.48 -517.166Z" fill="#2C5DF2"/>
    <path fill-rule="evenodd" clip-rule="evenodd" d="M274.169 680.068C329.067 689.647 380.455 708.202 425.376 741.181C470.099 774.016 512.168 813.641 528.381 866.702C544.443 919.266 526.35 973.558 512.645 1026.79C497.942 1083.89 495.229 1153.33 446.16 1186.03C397.252 1218.61 332.913 1183.98 274.169 1185.68C212.811 1187.44 145.027 1231.47 94.8304 1196.14C44.698 1160.85 64.8995 1081.73 44.4043 1023.96C23.0375 963.72 -33.9199 914.871 -27.4983 851.282C-20.5948 782.922 19.3075 714.674 79.0624 680.759C137.042 647.852 208.494 668.61 274.169 680.068Z" fill="#2C5DF2"/>
    <path fill-rule="evenodd" clip-rule="evenodd" d="M1193.45 310.261C1254.9 302.989 1313.22 328.337 1369.05 356.331C1437.01 390.404 1520.96 415.715 1549.78 488.927C1578.9 562.895 1531.47 642.442 1512.17 719.892C1491.4 803.261 1497.75 905.297 1432.93 957.934C1367.91 1010.74 1273.17 999.399 1193.45 978.733C1125.31 961.072 1083.75 895.528 1026.63 852.619C968.768 809.161 893.15 790.367 856.934 725.977C816.128 653.426 777.495 554.988 818.483 482.552C860.594 408.132 968.951 429.405 1044.35 394.758C1097.38 370.393 1135.95 317.065 1193.45 310.261Z" fill="#2C5DF2"/>
    <path fill-rule="evenodd" clip-rule="evenodd" d="M198.484 -50.1662C266.113 -42.8693 303.321 18.4962 350.197 60.9481C387.651 94.868 414.254 132.39 443.552 171.776C485.341 227.955 558.67 273.66 557.995 340.3C557.266 412.34 505.719 480.415 439.975 525.237C372.705 571.099 282.162 602.153 198.484 585.402C118.953 569.481 75.8926 498.691 27.0074 442.566C-8.26781 402.067 -25.0723 355.562 -43.5301 307.549C-62.0886 259.274 -91.3358 212.267 -80.7555 162.251C-69.3346 108.262 -31.5982 61.3213 16.258 24.9172C67.9415 -14.3983 129.949 -57.5609 198.484 -50.1662Z" fill="#2C5DF2"/>
    <rect x="15" y="27.3945" width="1336" height="1431.21" rx="17" stroke="white" stroke-width="6"/>
    </svg>
